<svg width="190" height="34" viewBox="0 0 190 34" fill="none" xmlns="http://www.w3.org/2000/svg">
<path d="M67.5855 28.5281H66.801V30.4327H65.2734V25.3672H66.801V27.3529H67.6268L69.0718 25.3672H70.7233L68.8654 27.7987L70.8471 30.4327H69.0305L67.5855 28.5281Z" fill="#007BFB"/>
<path d="M76.6685 25.4102V30.4757H75.1409V26.6259H73.4482L73.4069 27.5174C73.3656 28.1658 73.3243 28.7332 73.2004 29.1789C73.0766 29.6247 72.9114 29.9489 72.705 30.2326C72.4573 30.4757 72.127 30.5973 71.7141 30.5973C71.5077 30.5973 71.2187 30.5568 70.9297 30.4757L71.0123 29.26C71.1361 29.26 71.1774 29.26 71.2187 29.26C71.4664 29.26 71.6316 29.1789 71.7554 29.0168C71.8793 28.8547 71.9619 28.6521 72.0031 28.409C72.0444 28.1658 72.0857 27.8416 72.0857 27.4364L72.1683 25.4102H76.6685Z" fill="#007BFB"/>
<path d="M78.1562 25.4102H79.6838V28.409L82.2849 25.4102H83.6886V30.4757H82.161V27.4769L79.6013 30.4757H78.1975V25.4102H78.1562Z" fill="#007BFB"/>
<path d="M85.1328 25.4102H86.6604V27.3959H88.9724V25.4102H90.5V30.4757H88.9724V28.5711H86.6604V30.4757H85.1328V25.4102Z" fill="#007BFB"/>
<path d="M91.9844 25.4102H93.512V28.409L96.113 25.4102H97.5168V30.4757H95.9892V27.4769L93.4294 30.4757H92.0257V25.4102H91.9844Z" fill="#007BFB"/>
<path d="M98.9609 25.4102H100.489V27.3959H102.801V25.4102H104.328V30.4757H102.801V28.5711H100.489V30.4757H98.9609V25.4102Z" fill="#007BFB"/>
<path d="M110.073 26.5829H107.348V30.4327H105.82V25.3672H110.073V26.5829Z" fill="#007BFB"/>
<path d="M111.638 30.1911C111.184 29.9884 110.854 29.6642 110.606 29.259C110.358 28.8537 110.234 28.408 110.234 27.9217C110.234 27.4354 110.358 26.9896 110.606 26.5844C110.854 26.1791 111.184 25.8955 111.638 25.6523C112.092 25.4497 112.588 25.3281 113.124 25.3281C113.702 25.3281 114.198 25.4497 114.611 25.6523C115.065 25.8549 115.395 26.1791 115.643 26.5844C115.891 26.9896 116.014 27.4354 116.014 27.9217C116.014 28.408 115.891 28.8537 115.643 29.259C115.395 29.6642 115.065 29.9479 114.611 30.1911C114.157 30.3937 113.661 30.5152 113.124 30.5152C112.588 30.5152 112.092 30.4342 111.638 30.1911ZM114.115 28.9348C114.363 28.6917 114.487 28.3269 114.487 27.9217C114.487 27.4759 114.363 27.1517 114.115 26.9086C113.868 26.6654 113.537 26.5439 113.166 26.5439C112.753 26.5439 112.464 26.6654 112.175 26.9086C111.927 27.1517 111.803 27.5164 111.803 27.9217C111.803 28.3675 111.927 28.6917 112.175 28.9348C112.423 29.1779 112.753 29.2995 113.166 29.2995C113.537 29.34 113.868 29.2185 114.115 28.9348Z" fill="#007BFB"/>
<path d="M122.083 29.0144C122.083 29.4602 121.918 29.8249 121.547 30.068C121.175 30.3112 120.638 30.4327 119.936 30.4327H117.129V25.3672H119.854C120.514 25.3672 121.051 25.4888 121.423 25.6914C121.794 25.9345 122.001 26.2587 122.001 26.664C122.001 26.9071 121.918 27.1503 121.794 27.3124C121.67 27.515 121.464 27.6366 121.216 27.7581C121.753 28.0013 122.083 28.4065 122.083 29.0144ZM118.491 27.4745H119.647C120.184 27.4745 120.473 27.3124 120.473 26.9476C120.473 26.5829 120.184 26.4208 119.647 26.4208H118.491V27.4745ZM120.638 28.8928C120.638 28.6902 120.556 28.5686 120.432 28.447C120.308 28.366 120.102 28.3255 119.813 28.3255H118.491V29.4601H119.771C120.349 29.4601 120.638 29.2575 120.638 28.8928Z" fill="#007BFB"/>
<path d="M127.162 25.8961C127.616 26.2609 127.822 26.8282 127.822 27.5982V30.4754H126.418V29.827C126.129 30.3133 125.593 30.5159 124.808 30.5159C124.395 30.5159 124.065 30.4349 123.735 30.3133C123.404 30.1917 123.198 29.9891 123.033 29.7865C122.868 29.5839 122.785 29.3002 122.785 29.0165C122.785 28.5302 122.95 28.1655 123.322 27.9224C123.693 27.6387 124.271 27.5171 125.056 27.5171H126.295C126.295 27.1929 126.212 26.9498 126.005 26.7877C125.799 26.6256 125.51 26.5445 125.097 26.5445C124.808 26.5445 124.519 26.585 124.271 26.6661C123.982 26.7471 123.776 26.8687 123.57 26.9903L123.033 25.9772C123.322 25.7746 123.652 25.6125 124.065 25.5314C124.478 25.4098 124.891 25.3693 125.304 25.3693C126.088 25.3288 126.749 25.4909 127.162 25.8961ZM125.882 29.3812C126.088 29.2597 126.212 29.0976 126.295 28.8544V28.3276H125.221C124.602 28.3276 124.271 28.5302 124.271 28.9355C124.271 29.1381 124.354 29.2597 124.519 29.3812C124.684 29.5028 124.891 29.5433 125.138 29.5433C125.427 29.5433 125.675 29.5028 125.882 29.3812Z" fill="#007BFB"/>
<path d="M133.891 25.4102V30.4757H132.529V29.0168H131.373L130.382 30.4757H128.73L129.928 28.8142C129.556 28.6926 129.267 28.49 129.102 28.2064C128.896 27.9632 128.813 27.639 128.813 27.2743C128.813 26.6664 129.019 26.2207 129.474 25.8965C129.928 25.5723 130.547 25.4102 131.332 25.4102H133.891ZM130.63 26.7475C130.465 26.869 130.382 27.0311 130.382 27.2743C130.382 27.5174 130.465 27.72 130.63 27.8416C130.795 27.9632 131.043 28.0037 131.373 28.0037H132.529V26.5448H131.373C131.043 26.5854 130.795 26.6664 130.63 26.7475Z" fill="#007BFB"/>
<path d="M140.5 28.5281H139.715V30.4327H138.188V25.3672H139.715V27.3529H140.541L141.986 25.3672H143.637L141.779 27.7987L143.761 30.4327H141.945L140.5 28.5281Z" fill="#007BFB"/>
<path d="M145.287 30.1911C144.832 29.9884 144.502 29.6642 144.254 29.259C144.007 28.8537 143.883 28.408 143.883 27.9217C143.883 27.4354 144.007 26.9896 144.254 26.5844C144.502 26.1791 144.832 25.8955 145.287 25.6523C145.741 25.4497 146.236 25.3281 146.773 25.3281C147.351 25.3281 147.846 25.4497 148.259 25.6523C148.713 25.8549 149.044 26.1791 149.291 26.5844C149.539 26.9896 149.663 27.4354 149.663 27.9217C149.663 28.408 149.539 28.8537 149.291 29.259C149.044 29.6642 148.713 29.9479 148.259 30.1911C147.805 30.3937 147.31 30.5152 146.773 30.5152C146.236 30.5152 145.741 30.4342 145.287 30.1911ZM147.764 28.9348C148.011 28.6917 148.135 28.3269 148.135 27.9217C148.135 27.4759 148.011 27.1517 147.764 26.9086C147.516 26.6654 147.186 26.5439 146.814 26.5439C146.401 26.5439 146.112 26.6654 145.823 26.9086C145.576 27.1517 145.452 27.5164 145.452 27.9217C145.452 28.3675 145.576 28.6917 145.823 28.9348C146.071 29.1779 146.401 29.2995 146.814 29.2995C147.186 29.34 147.516 29.2185 147.764 28.9348Z" fill="#007BFB"/>
<path d="M155.936 30.4757V27.4364L154.368 29.9894H153.666L152.138 27.4364V30.4757H150.734V25.4102H152.345L154.037 28.3279L155.854 25.4102H157.299V30.4757H155.936Z" fill="#007BFB"/>
<path d="M164.032 25.4102V30.4757H162.505V26.6259H160.317V30.4757H158.789V25.4102H164.032Z" fill="#007BFB"/>
<path d="M169.48 25.8961C169.934 26.2609 170.141 26.8282 170.141 27.5982V30.4754H168.696V29.827C168.407 30.3133 167.87 30.5159 167.086 30.5159C166.673 30.5159 166.342 30.4349 166.012 30.3133C165.682 30.1917 165.475 29.9891 165.31 29.7865C165.145 29.5839 165.062 29.3002 165.062 29.0165C165.062 28.5302 165.228 28.1655 165.599 27.9224C165.971 27.6387 166.549 27.5171 167.333 27.5171H168.572C168.572 27.1929 168.489 26.9498 168.283 26.7877C168.076 26.6256 167.787 26.5445 167.375 26.5445C167.086 26.5445 166.797 26.585 166.549 26.6661C166.26 26.7471 166.053 26.8687 165.847 26.9903L165.31 25.9772C165.599 25.7746 165.93 25.6125 166.342 25.5314C166.755 25.4098 167.168 25.3693 167.581 25.3693C168.407 25.3288 169.026 25.4909 169.48 25.8961ZM168.159 29.3812C168.365 29.2597 168.489 29.0976 168.572 28.8544V28.3276H167.498C166.879 28.3276 166.549 28.5302 166.549 28.9355C166.549 29.1381 166.631 29.2597 166.797 29.3812C166.962 29.5028 167.168 29.5433 167.416 29.5433C167.746 29.5433 167.953 29.5028 168.159 29.3812Z" fill="#007BFB"/>
<path d="M171.461 25.4102H172.989V27.3959H175.301V25.4102H176.828V30.4757H175.301V28.5711H172.989V30.4757H171.461V25.4102Z" fill="#007BFB"/>
<path d="M178.316 25.4102H179.844V28.409L182.445 25.4102H183.849V30.4757H182.321V27.4769L179.761 30.4757H178.358V25.4102H178.316Z" fill="#007BFB"/>
<path d="M190.002 25.4102V30.4757H188.64V29.0168H187.525L186.534 30.4757H184.883L186.08 28.8142C185.709 28.6926 185.42 28.49 185.254 28.2064C185.048 27.9632 184.965 27.639 184.965 27.2743C184.965 26.6664 185.172 26.2207 185.626 25.8965C186.08 25.5723 186.699 25.4102 187.484 25.4102H190.002ZM186.782 26.7475C186.617 26.869 186.534 27.0311 186.534 27.2743C186.534 27.5174 186.617 27.72 186.782 27.8416C186.947 27.9632 187.195 28.0037 187.525 28.0037H188.681V26.5448H187.525C187.195 26.5854 186.947 26.6664 186.782 26.7475Z" fill="#007BFB"/>
<path d="M80.9623 18.9647L80.921 9.27932L75.9667 17.2626H74.1914L69.237 9.52247V18.9647H65.5625V2.83594H68.7828L75.0997 12.8455L81.3339 2.83594H84.5543L84.5955 18.9647H80.9623Z" fill="#007BFB"/>
<path d="M99.7496 15.5201H91.9052L90.4188 18.9647H86.4141L93.9282 2.83594H97.7678L105.323 18.9647H101.236L99.7496 15.5201ZM98.511 12.6834L95.8274 6.52366L93.1437 12.6834H98.511Z" fill="#007BFB"/>
<path d="M113.249 12.6414L110.979 14.9108V19.0037H107.098V2.875H110.979V10.4125L118.451 2.875H122.786L115.809 10.0478L123.199 18.9632H118.658L113.249 12.6414Z" fill="#007BFB"/>
<path d="M124.934 2.875H128.856V15.9644H137.32V19.0037H124.934V2.875Z" fill="#007BFB"/>
<path d="M152.554 15.9659V18.9647H139.508V2.83594H152.265V5.83474H143.389V9.31985H151.233V12.2376H143.389V15.9659H152.554Z" fill="#007BFB"/>
<path d="M166.796 15.5201H158.952L157.466 18.9647H153.461L160.975 2.83594H164.815L172.37 18.9647H168.283L166.796 15.5201ZM165.558 12.6834L162.874 6.52366L160.191 12.6834H165.558Z" fill="#007BFB"/>
<path d="M189.631 2.875V19.0037H186.411L177.988 9.23733V19.0037H174.148V2.875H177.369L185.75 12.6414V2.875H189.631Z" fill="#007BFB"/>
<path d="M59.5763 28.8939L42.1947 12.6436L55.0348 0H47.6858L34.7632 12.8057L51.9796 28.8939H5.20209V26.0977H5.24338V7.2944L12.6749 14.5888L16.3494 18.1955L27.4968 7.2944V26.0977H32.7401V0.0405207H27.4968L16.3494 10.9821L5.24338 0.0405207H0V22.8963V26.0977V28.8939V34H5.20209H59.5763V28.9344V28.8939Z" fill="#007BFB"/>
</svg>
