<svg width="190" height="35" viewBox="0 0 190 35" fill="none" xmlns="http://www.w3.org/2000/svg">
<path d="M67.5855 29.066H66.801V31.0065H65.2734V25.8457H66.801V27.8687H67.6268L69.0718 25.8457H70.7233L68.8654 28.3229L70.8471 31.0065H69.0305L67.5855 29.066Z" fill="#F4F6FB"/>
<path d="M76.6685 25.8867V31.0475H75.1409V27.1253H73.4482L73.4069 28.0336C73.3656 28.6942 73.3243 29.2722 73.2004 29.7264C73.0766 30.1805 72.9114 30.5108 72.705 30.7998C72.4573 31.0475 72.127 31.1714 71.7141 31.1714C71.5077 31.1714 71.2187 31.1301 70.9297 31.0475L71.0123 29.8089C71.1361 29.8089 71.1774 29.8089 71.2187 29.8089C71.4664 29.8089 71.6316 29.7264 71.7554 29.5612C71.8793 29.3961 71.9619 29.1896 72.0031 28.9419C72.0444 28.6942 72.0857 28.3639 72.0857 27.951L72.1683 25.8867H76.6685Z" fill="#F4F6FB"/>
<path d="M78.1562 25.8867H79.6838V28.9419L82.2849 25.8867H83.6886V31.0475H82.161V27.9923L79.6013 31.0475H78.1975V25.8867H78.1562Z" fill="#F4F6FB"/>
<path d="M85.1328 25.8867H86.6604V27.9098H88.9724V25.8867H90.5V31.0475H88.9724V29.1071H86.6604V31.0475H85.1328V25.8867Z" fill="#F4F6FB"/>
<path d="M91.9863 25.8867H93.5139V28.9419L96.115 25.8867H97.5187V31.0475H95.9911V27.9923L93.4314 31.0475H92.0276V25.8867H91.9863Z" fill="#F4F6FB"/>
<path d="M98.9629 25.8867H100.49V27.9098H102.803V25.8867H104.33V31.0475H102.803V29.1071H100.49V31.0475H98.9629V25.8867Z" fill="#F4F6FB"/>
<path d="M110.071 27.0843H107.346V31.0065H105.818V25.8457H110.071V27.0843Z" fill="#F4F6FB"/>
<path d="M111.638 30.7591C111.184 30.5526 110.854 30.2223 110.606 29.8095C110.358 29.3966 110.234 28.9425 110.234 28.447C110.234 27.9516 110.358 27.4974 110.606 27.0846C110.854 26.6717 111.184 26.3827 111.638 26.135C112.092 25.9285 112.588 25.8047 113.124 25.8047C113.702 25.8047 114.198 25.9285 114.611 26.135C115.065 26.3414 115.395 26.6717 115.643 27.0846C115.891 27.4974 116.014 27.9516 116.014 28.447C116.014 28.9425 115.891 29.3966 115.643 29.8095C115.395 30.2223 115.065 30.5113 114.611 30.7591C114.157 30.9655 113.661 31.0893 113.124 31.0893C112.588 31.0893 112.092 31.0068 111.638 30.7591ZM114.115 29.4792C114.363 29.2315 114.487 28.8599 114.487 28.447C114.487 27.9929 114.363 27.6626 114.115 27.4149C113.868 27.1671 113.537 27.0433 113.166 27.0433C112.753 27.0433 112.464 27.1671 112.175 27.4149C111.927 27.6626 111.803 28.0342 111.803 28.447C111.803 28.9012 111.927 29.2315 112.175 29.4792C112.423 29.7269 112.753 29.8508 113.166 29.8508C113.537 29.892 113.868 29.7682 114.115 29.4792Z" fill="#F4F6FB"/>
<path d="M122.083 29.5615C122.083 30.0156 121.918 30.3872 121.547 30.6349C121.175 30.8826 120.638 31.0065 119.936 31.0065H117.129V25.8457H119.854C120.514 25.8457 121.051 25.9696 121.423 26.176C121.794 26.4237 122.001 26.754 122.001 27.1669C122.001 27.4146 121.918 27.6623 121.794 27.8274C121.67 28.0339 121.464 28.1577 121.216 28.2816C121.753 28.5293 122.083 28.9422 122.083 29.5615ZM118.491 27.9926H119.647C120.184 27.9926 120.473 27.8274 120.473 27.4559C120.473 27.0843 120.184 26.9191 119.647 26.9191H118.491V27.9926ZM120.638 29.4376C120.638 29.2312 120.556 29.1073 120.432 28.9835C120.308 28.9009 120.102 28.8596 119.813 28.8596H118.491V30.0156H119.771C120.349 30.0156 120.638 29.8092 120.638 29.4376Z" fill="#F4F6FB"/>
<path d="M127.162 26.3827C127.616 26.7543 127.822 27.3323 127.822 28.1168V31.0481H126.418V30.3875C126.129 30.8829 125.593 31.0894 124.808 31.0894C124.395 31.0894 124.065 31.0068 123.735 30.8829C123.404 30.7591 123.198 30.5526 123.033 30.3462C122.868 30.1398 122.785 29.8508 122.785 29.5618C122.785 29.0663 122.95 28.6948 123.322 28.447C123.693 28.158 124.271 28.0342 125.056 28.0342H126.295C126.295 27.7039 126.212 27.4562 126.005 27.291C125.799 27.1259 125.51 27.0433 125.097 27.0433C124.808 27.0433 124.519 27.0846 124.271 27.1672C123.982 27.2497 123.776 27.3736 123.57 27.4975L123.033 26.4653C123.322 26.2589 123.652 26.0937 124.065 26.0111C124.478 25.8873 124.891 25.846 125.304 25.846C126.088 25.8047 126.749 25.9699 127.162 26.3827ZM125.882 29.9334C126.088 29.8095 126.212 29.6443 126.295 29.3966V28.8599H125.221C124.602 28.8599 124.271 29.0663 124.271 29.4792C124.271 29.6856 124.354 29.8095 124.519 29.9334C124.684 30.0572 124.891 30.0985 125.138 30.0985C125.427 30.0985 125.675 30.0572 125.882 29.9334Z" fill="#F4F6FB"/>
<path d="M133.891 25.8867V31.0475H132.529V29.5612H131.373L130.382 31.0475H128.73L129.928 29.3548C129.556 29.2309 129.267 29.0245 129.102 28.7355C128.896 28.4878 128.813 28.1575 128.813 27.7859C128.813 27.1666 129.019 26.7125 129.474 26.3822C129.928 26.0519 130.547 25.8867 131.332 25.8867H133.891ZM130.63 27.2492C130.465 27.373 130.382 27.5382 130.382 27.7859C130.382 28.0336 130.465 28.24 130.63 28.3639C130.795 28.4878 131.043 28.5291 131.373 28.5291H132.529V27.0427H131.373C131.043 27.084 130.795 27.1666 130.63 27.2492Z" fill="#F4F6FB"/>
<path d="M140.498 29.066H139.713V31.0065H138.186V25.8457H139.713V27.8687H140.539L141.984 25.8457H143.635L141.777 28.3229L143.759 31.0065H141.943L140.498 29.066Z" fill="#F4F6FB"/>
<path d="M145.287 30.7591C144.832 30.5526 144.502 30.2223 144.254 29.8095C144.007 29.3966 143.883 28.9425 143.883 28.447C143.883 27.9516 144.007 27.4974 144.254 27.0846C144.502 26.6717 144.832 26.3827 145.287 26.135C145.741 25.9285 146.236 25.8047 146.773 25.8047C147.351 25.8047 147.846 25.9285 148.259 26.135C148.713 26.3414 149.044 26.6717 149.291 27.0846C149.539 27.4974 149.663 27.9516 149.663 28.447C149.663 28.9425 149.539 29.3966 149.291 29.8095C149.044 30.2223 148.713 30.5113 148.259 30.7591C147.805 30.9655 147.31 31.0893 146.773 31.0893C146.236 31.0893 145.741 31.0068 145.287 30.7591ZM147.764 29.4792C148.011 29.2315 148.135 28.8599 148.135 28.447C148.135 27.9929 148.011 27.6626 147.764 27.4149C147.516 27.1671 147.186 27.0433 146.814 27.0433C146.401 27.0433 146.112 27.1671 145.823 27.4149C145.576 27.6626 145.452 28.0342 145.452 28.447C145.452 28.9012 145.576 29.2315 145.823 29.4792C146.071 29.7269 146.401 29.8508 146.814 29.8508C147.186 29.892 147.516 29.7682 147.764 29.4792Z" fill="#F4F6FB"/>
<path d="M155.938 31.0475V27.951L154.37 30.5521H153.668L152.14 27.951V31.0475H150.736V25.8867H152.346L154.039 28.8593L155.856 25.8867H157.301V31.0475H155.938Z" fill="#F4F6FB"/>
<path d="M164.03 25.8867V31.0475H162.503V27.1253H160.315V31.0475H158.787V25.8867H164.03Z" fill="#F4F6FB"/>
<path d="M169.48 26.3827C169.934 26.7543 170.141 27.3323 170.141 28.1168V31.0481H168.696V30.3875C168.407 30.8829 167.87 31.0894 167.086 31.0894C166.673 31.0894 166.342 31.0068 166.012 30.8829C165.682 30.7591 165.475 30.5526 165.31 30.3462C165.145 30.1398 165.062 29.8508 165.062 29.5618C165.062 29.0663 165.228 28.6948 165.599 28.447C165.971 28.158 166.549 28.0342 167.333 28.0342H168.572C168.572 27.7039 168.489 27.4562 168.283 27.291C168.076 27.1259 167.787 27.0433 167.375 27.0433C167.086 27.0433 166.797 27.0846 166.549 27.1672C166.26 27.2497 166.053 27.3736 165.847 27.4975L165.31 26.4653C165.599 26.2589 165.93 26.0937 166.342 26.0111C166.755 25.8873 167.168 25.846 167.581 25.846C168.407 25.8047 169.026 25.9699 169.48 26.3827ZM168.159 29.9334C168.365 29.8095 168.489 29.6443 168.572 29.3966V28.8599H167.498C166.879 28.8599 166.549 29.0663 166.549 29.4792C166.549 29.6856 166.631 29.8095 166.797 29.9334C166.962 30.0572 167.168 30.0985 167.416 30.0985C167.746 30.0985 167.953 30.0572 168.159 29.9334Z" fill="#F4F6FB"/>
<path d="M171.463 25.8867H172.99V27.9098H175.303V25.8867H176.83V31.0475H175.303V29.1071H172.99V31.0475H171.463V25.8867Z" fill="#F4F6FB"/>
<path d="M178.316 25.8867H179.844V28.9419L182.445 25.8867H183.849V31.0475H182.321V27.9923L179.761 31.0475H178.358V25.8867H178.316Z" fill="#F4F6FB"/>
<path d="M190 25.8867V31.0475H188.638V29.5612H187.523L186.532 31.0475H184.881L186.078 29.3548C185.707 29.2309 185.418 29.0245 185.252 28.7355C185.046 28.4878 184.963 28.1575 184.963 27.7859C184.963 27.1666 185.17 26.7125 185.624 26.3822C186.078 26.0519 186.697 25.8867 187.482 25.8867H190ZM186.78 27.2492C186.615 27.373 186.532 27.5382 186.532 27.7859C186.532 28.0336 186.615 28.24 186.78 28.3639C186.945 28.4878 187.193 28.5291 187.523 28.5291H188.679V27.0427H187.523C187.193 27.084 186.945 27.1666 186.78 27.2492Z" fill="#F4F6FB"/>
<path d="M80.9623 19.3207L80.921 9.45321L75.9667 17.5866H74.1914L69.237 9.70093V19.3207H65.5625V2.88867H68.7828L75.0997 13.0864L81.3339 2.88867H84.5543L84.5955 19.3207H80.9623Z" fill="#F4F6FB"/>
<path d="M99.7476 15.8113H91.9032L90.4169 19.3207H86.4121L93.9262 2.88867H97.7659L105.321 19.3207H101.234L99.7476 15.8113ZM98.509 12.9213L95.8254 6.64574L93.1418 12.9213H98.509Z" fill="#F4F6FB"/>
<path d="M113.249 12.8797L110.979 15.1918V19.3617H107.098V2.92969H110.979V10.609L118.451 2.92969H122.786L115.809 10.2374L123.199 19.3204H118.658L113.249 12.8797Z" fill="#F4F6FB"/>
<path d="M124.934 2.92969H128.856V16.2652H137.32V19.3617H124.934V2.92969Z" fill="#F4F6FB"/>
<path d="M152.554 16.2655V19.3207H139.508V2.88867H152.265V5.94387H143.389V9.4945H151.233V12.4671H143.389V16.2655H152.554Z" fill="#F4F6FB"/>
<path d="M166.798 15.8113H158.954L157.468 19.3207H153.463L160.977 2.88867H164.817L172.372 19.3207H168.285L166.798 15.8113ZM165.56 12.9213L162.876 6.64574L160.193 12.9213H165.56Z" fill="#F4F6FB"/>
<path d="M189.629 2.92969V19.3617H186.409L177.986 9.41165V19.3617H174.146V2.92969H177.367L185.748 12.8797V2.92969H189.629Z" fill="#F4F6FB"/>
<path d="M59.5763 29.4372L42.1947 12.8814L55.0348 0H47.6858L34.7632 13.0465L51.9796 29.4372H5.20209V26.5885H5.24338V7.43156L12.6749 14.8631L16.3494 18.5376L27.4968 7.43156V26.5885H32.7401V0.0412827H27.4968L16.3494 11.1886L5.24338 0.0412827H0V23.3268V26.5885V29.4372V34.6393H5.20209H59.5763V29.4785V29.4372Z" fill="#F4F6FB"/>
</svg>
