<svg width="12" height="19" viewBox="0 0 12 19" fill="none" xmlns="http://www.w3.org/2000/svg">
<path d="M1.28571 19C0.942857 19 0.642857 18.8705 0.385714 18.6114C0.128571 18.3523 0 18.05 0 17.7045V1.29545C0 0.95 0.128571 0.647727 0.385714 0.388636C0.642857 0.129545 0.942857 0 1.28571 0H10.7143C11.0571 0 11.3571 0.129545 11.6143 0.388636C11.8714 0.647727 12 0.95 12 1.29545V17.7045C12 18.05 11.8714 18.3523 11.6143 18.6114C11.3571 18.8705 11.0571 19 10.7143 19H1.28571ZM1.28571 17.0568V17.7045H10.7143V17.0568H1.28571ZM1.28571 15.7614H10.7143V3.23864H1.28571V15.7614ZM1.28571 1.94318H10.7143V1.29545H1.28571V1.94318Z" fill="white"/>
</svg>
