<svg width="21" height="19" viewBox="0 0 21 19" fill="none" xmlns="http://www.w3.org/2000/svg">
<path d="M1.46512 19C1.0907 19 0.752907 18.8169 0.451744 18.4508C0.150581 18.0846 0 17.674 0 17.2188V1.78125C0 1.32604 0.150581 0.915365 0.451744 0.549219C0.752907 0.183073 1.0907 0 1.46512 0H8.32674L9.79186 1.78125H18.0698C18.4442 1.78125 18.782 1.96432 19.0831 2.33047C19.3843 2.69661 19.5349 3.10729 19.5349 3.5625H9.15698L7.69186 1.78125H1.46512V17.2188L3.95581 5.34375H21L18.3872 17.6344C18.2895 18.1094 18.1105 18.4557 17.85 18.6734C17.5895 18.8911 17.2558 19 16.8488 19H1.46512ZM3.00349 17.2188H16.9709L19.0221 7.125H5.05465L3.00349 17.2188Z" fill="white"/>
</svg>
