<svg width="60" height="53" viewBox="0 0 60 53" fill="none" xmlns="http://www.w3.org/2000/svg">
<g clip-path="url(#clip0_766_768)">
<g filter="url(#filter0_d_766_768)">
<path d="M8.87785 43.005L8.86659 38.2661L6.54571 42.1681H5.73453L3.41366 38.3565V43.005H1.70117V35.0879H3.21087L6.16266 40.0078L9.06938 35.0879H10.5791L10.5903 43.005H8.87785ZM18.4531 41.3085H14.7915L14.093 43.005H12.2227L15.7379 35.0879H17.5405L21.0669 43.005H19.1516L18.4531 41.3085ZM17.8785 39.9173L16.6279 36.8862L15.3773 39.9173H17.8785ZM25.7292 39.8155H24.4673V43.005H22.6535V35.0879H24.4673V38.2887H25.7742L27.8473 35.0879H29.7738L27.1938 38.9107L29.8527 43.005H27.7797L25.7292 39.8155ZM38.4992 35.0879V43.005H36.6966V36.5808H33.9927L33.9363 38.2321C33.8989 39.3556 33.8087 40.268 33.6659 40.9692C33.5233 41.6629 33.2829 42.1982 32.9449 42.5752C32.6145 42.9446 32.1488 43.1294 31.5479 43.1294C31.3 43.1294 30.9996 43.088 30.6466 43.005L30.7592 41.4555C30.857 41.4856 30.9658 41.5008 31.0859 41.5008C31.5217 41.5008 31.8259 41.2444 31.9985 40.7317C32.1713 40.2114 32.2802 39.4009 32.3253 38.3L32.4379 35.0879H38.4992ZM41.0323 35.0879H42.8462V40.2453L46.6092 35.0879H48.3217V43.005H46.5191V37.8589L42.7561 43.005H41.0323V35.0879ZM58.0815 35.0879V43.005H56.2563V39.759H52.6736V43.005H50.8485V35.0879H52.6736V38.2095H56.2563V35.0879H58.0815Z" fill="white"/>
</g>
<g filter="url(#filter1_d_766_768)">
<path d="M58.166 28.1643L41.6927 12.3243L53.8619 0H46.8969L34.6495 12.4824L50.9663 28.1643H6.63336V25.4387H6.67249V7.11021L13.7157 14.2204L17.1982 17.7361L27.7629 7.11021V25.4387H32.7323V0.0394975H27.7629L17.1982 10.7048L6.67249 0.0394975H1.70312V22.3181V25.4387V28.1643V33.1414H6.63336H58.166V28.2038V28.1643Z" fill="white"/>
</g>
<path d="M3.10739 47.2632H2.49429V48.6598H1.89062V45.3457H2.49429V46.7329H3.12626L4.07421 45.3457H4.72504L3.59787 46.9507L4.76748 48.6598H4.07421L3.10739 47.2632ZM13.3643 45.3457V48.6598H12.7606V45.8665H11.459L11.4307 46.695C11.415 47.159 11.3772 47.5362 11.3175 47.8266C11.2578 48.1138 11.1619 48.3332 11.0298 48.4847C10.8978 48.633 10.7154 48.7072 10.4827 48.7072C10.401 48.7072 10.2894 48.6914 10.1479 48.6598L10.1903 48.1249C10.2312 48.1375 10.2784 48.1438 10.3318 48.1438C10.5236 48.1438 10.6588 48.0302 10.7374 47.8029C10.8191 47.5725 10.8695 47.2111 10.8883 46.7187L10.9355 45.3457H13.3643ZM19.5798 45.3457H20.1834V47.6987L21.9567 45.3457H22.5274V48.6598H21.9237V46.3115L20.1504 48.6598H19.5798V45.3457ZM31.6686 45.3457V48.6598H31.0555V47.2395H29.3482V48.6598H28.7351V45.3457H29.3482V46.714H31.0555V45.3457H31.6686ZM37.8815 45.3457H38.4851V47.6987L40.2584 45.3457H40.8291V48.6598H40.2254V46.3115L38.4521 48.6598H37.8815V45.3457ZM49.9703 45.3457V48.6598H49.3572V47.2395H47.6499V48.6598H47.0368V45.3457H47.6499V46.714H49.3572V45.3457H49.9703ZM58.4185 45.8665H56.782L56.7867 48.6598H56.183V45.3457H58.4232L58.4185 45.8665Z" fill="white"/>
</g>
<defs>
<filter id="filter0_d_766_768" x="-1.29883" y="35.0879" width="62.3809" height="15.041" filterUnits="userSpaceOnUse" color-interpolation-filters="sRGB">
<feFlood flood-opacity="0" result="BackgroundImageFix"/>
<feColorMatrix in="SourceAlpha" type="matrix" values="0 0 0 0 0 0 0 0 0 0 0 0 0 0 0 0 0 0 127 0" result="hardAlpha"/>
<feOffset dy="4"/>
<feGaussianBlur stdDeviation="1.5"/>
<feComposite in2="hardAlpha" operator="out"/>
<feColorMatrix type="matrix" values="0 0 0 0 0 0 0 0 0 0 0 0 0 0 0 0 0 0 0.28 0"/>
<feBlend mode="normal" in2="BackgroundImageFix" result="effect1_dropShadow_766_768"/>
<feBlend mode="normal" in="SourceGraphic" in2="effect1_dropShadow_766_768" result="shape"/>
</filter>
<filter id="filter1_d_766_768" x="-13.2969" y="-11" width="86.4629" height="63.1406" filterUnits="userSpaceOnUse" color-interpolation-filters="sRGB">
<feFlood flood-opacity="0" result="BackgroundImageFix"/>
<feColorMatrix in="SourceAlpha" type="matrix" values="0 0 0 0 0 0 0 0 0 0 0 0 0 0 0 0 0 0 127 0" result="hardAlpha"/>
<feOffset dy="4"/>
<feGaussianBlur stdDeviation="7.5"/>
<feComposite in2="hardAlpha" operator="out"/>
<feColorMatrix type="matrix" values="0 0 0 0 0 0 0 0 0 0 0 0 0 0 0 0 0 0 0.28 0"/>
<feBlend mode="normal" in2="BackgroundImageFix" result="effect1_dropShadow_766_768"/>
<feBlend mode="normal" in="SourceGraphic" in2="effect1_dropShadow_766_768" result="shape"/>
</filter>
<clipPath id="clip0_766_768">
<rect width="60" height="53" fill="white"/>
</clipPath>
</defs>
</svg>
