<svg width="15" height="19" viewBox="0 0 15 19" fill="none" xmlns="http://www.w3.org/2000/svg">
<path d="M7.5 11.4C8.01562 11.4 8.45703 11.214 8.82422 10.8419C9.19141 10.4698 9.375 10.0225 9.375 9.5C9.375 8.9775 9.19141 8.53021 8.82422 8.15812C8.45703 7.78604 8.01562 7.6 7.5 7.6C6.98438 7.6 6.54297 7.78604 6.17578 8.15812C5.80859 8.53021 5.625 8.9775 5.625 9.5C5.625 10.0225 5.80859 10.4698 6.17578 10.8419C6.54297 11.214 6.98438 11.4 7.5 11.4ZM3.75 15.2H11.25V14.6537C11.25 14.2737 11.1484 13.9254 10.9453 13.6087C10.7422 13.2921 10.4609 13.0546 10.1016 12.8962C9.69531 12.7221 9.27734 12.5875 8.84766 12.4925C8.41797 12.3975 7.96875 12.35 7.5 12.35C7.03125 12.35 6.58203 12.3975 6.15234 12.4925C5.72266 12.5875 5.30469 12.7221 4.89844 12.8962C4.53906 13.0546 4.25781 13.2921 4.05469 13.6087C3.85156 13.9254 3.75 14.2737 3.75 14.6537V15.2ZM13.5938 19H1.40625C1.03125 19 0.703125 18.8575 0.421875 18.5725C0.140625 18.2875 0 17.955 0 17.575V1.425C0 1.045 0.140625 0.7125 0.421875 0.4275C0.703125 0.1425 1.03125 0 1.40625 0H9.39844L15 5.67625V17.575C15 17.955 14.8594 18.2875 14.5781 18.5725C14.2969 18.8575 13.9688 19 13.5938 19ZM13.5938 17.575V6.3175L8.76562 1.425H1.40625V17.575H13.5938Z" fill="white"/>
</svg>
