<svg width="15" height="19" viewBox="0 0 15 19" fill="none" xmlns="http://www.w3.org/2000/svg">
<path d="M3.5625 19C3.15563 19 2.79962 18.8942 2.49447 18.6827C2.18931 18.4712 2.00961 18.2027 1.95536 17.8773L0 6.04545H15L13.0446 17.8773C12.9904 18.2027 12.8107 18.4712 12.5055 18.6827C12.2004 18.8942 11.8444 19 11.4375 19H3.5625ZM3.5625 17.7045H11.4643L13.1518 7.34091H1.84821L3.5625 17.7045ZM7.50316 12.7386C8.32248 12.7386 9.01786 12.5077 9.58929 12.0459C10.1607 11.5841 10.4464 11.0234 10.4464 10.3636V8.85227H8.83929V10.3636C8.83929 10.6695 8.71138 10.9259 8.45558 11.1328C8.19979 11.3397 7.88283 11.4432 7.50469 11.4432C7.12656 11.4432 6.80804 11.3397 6.54911 11.1328C6.29018 10.9259 6.16071 10.6695 6.16071 10.3636V8.85227H4.55357V10.3636C4.55357 11.0234 4.84034 11.5841 5.41388 12.0459C5.98739 12.5077 6.68382 12.7386 7.50316 12.7386ZM10.7143 4.75C10.3571 4.75 10.0446 4.64205 9.77679 4.42614C9.50893 4.21023 9.375 3.95473 9.375 3.65966C9.375 3.36458 9.50893 3.11269 9.77679 2.90398C10.0446 2.69527 10.3616 2.59091 10.7277 2.59091C11.0938 2.59091 11.4062 2.69586 11.6652 2.90577C11.9241 3.11569 12.0536 3.37059 12.0536 3.67045C12.0536 3.95833 11.9234 4.21023 11.663 4.42614C11.4025 4.64205 11.0863 4.75 10.7143 4.75ZM5.35714 3.88636C4.69643 3.88636 4.12946 3.69564 3.65625 3.3142C3.18304 2.93277 2.94643 2.47216 2.94643 1.93239C2.94643 1.39261 3.18304 0.935606 3.65625 0.561364C4.12946 0.187121 4.70089 0 5.37054 0C6.04018 0 6.60714 0.18784 7.07143 0.563522C7.53571 0.939204 7.76786 1.39909 7.76786 1.94318C7.76786 2.47576 7.53482 2.93277 7.06875 3.3142C6.60268 3.69564 6.03214 3.88636 5.35714 3.88636Z" fill="white"/>
</svg>
