<svg width="94" height="13" viewBox="0 0 94 13" fill="none" xmlns="http://www.w3.org/2000/svg">
<g clip-path="url(#clip0_352_1480)">
<path d="M26.8413 0.34375H31.0232L34.3945 9.57909L37.7381 0.34375H41.7726V12.6575H39.0922V3.24111L35.6011 12.6575H32.847L29.356 3.2983V12.6575H26.8505V0.34375H26.8413Z" fill="#007BFB"/>
<path d="M59.2737 0.34375H68.4941V12.6575H65.6386V2.93613H61.8805C61.8528 4.6612 61.8068 6.98671 61.7607 8.2829C61.6594 11.5138 60.7475 12.6575 58.0763 12.6575H56.7959V10.0652H57.5052C58.7118 10.0652 59.0987 9.50284 59.1816 7.74918C59.2461 5.86208 59.2737 2.12601 59.2737 0.34375Z" fill="#007BFB"/>
<path d="M83.0752 0.34375H93.9167V2.93613H89.9099V12.6575H87.0821V2.93613H83.0752V0.34375Z" fill="#007BFB"/>
<path d="M19.4539 0.0859375H18.4315C15.9813 0.0859375 14.1207 1.62993 13.697 3.92685L16.3037 4.35573C16.6629 3.25969 17.4827 2.51629 18.5144 2.46864C18.7078 2.45911 18.9105 2.45911 19.1039 2.46864C20.6422 2.52582 21.3422 3.28828 21.3422 5.17538C18.4223 5.17538 16.4327 5.03242 14.9589 6.03315C13.7614 6.8528 13.2456 7.75823 13.2456 9.18785C13.2456 11.2656 14.8023 12.9049 17.3169 12.9049H17.667C19.4447 12.9049 20.8817 12.19 21.462 11.3227V12.6475H24.0872V5.23257C24.0964 2.37333 22.6134 0.0859375 19.4539 0.0859375ZM17.8512 10.5031C16.7366 10.4745 16.0919 9.79782 16.0919 8.95911C16.0919 8.26336 16.3958 7.91072 16.8011 7.67245C17.2248 7.41512 17.7775 7.32934 18.6249 7.30075C19.4447 7.27216 20.1079 7.23403 21.3883 7.23403C21.3883 9.33081 20.1079 10.3887 18.5236 10.5031C18.3025 10.5126 18.0815 10.5126 17.8512 10.5031Z" fill="#007BFB"/>
<path d="M82.4124 7.32903V6.17581C82.4124 2.20146 79.9991 0.152344 76.8857 0.152344H76.2778C72.9249 0.152344 70.7879 2.51598 70.6774 5.85176C70.659 6.33783 70.659 6.54751 70.6774 7.21466C70.7511 10.5314 73.0078 12.7711 76.0107 12.8569C76.5633 12.876 76.4896 12.876 77.0055 12.8569C79.6214 12.7806 81.6018 11.2176 82.1914 9.17801L79.6583 8.72053C79.0411 9.99765 77.8621 10.4933 76.9134 10.5409C76.7015 10.5504 76.4896 10.5504 76.2686 10.5409C74.7856 10.4742 73.4684 9.28284 73.4684 7.53871V7.34809L82.4124 7.32903ZM76.2317 2.46833C76.462 2.44926 76.7015 2.44926 76.941 2.46833C78.1845 2.53504 79.4925 3.37375 79.6214 5.03211H73.496C73.6342 3.54531 74.7856 2.5541 76.2317 2.46833Z" fill="#007BFB"/>
<path d="M56.0129 5.41334C55.9484 2.4302 53.6272 0.152344 50.5599 0.152344H49.4453C46.378 0.152344 44.0568 2.43973 43.9923 5.4324C43.9739 6.26158 43.9739 6.74765 43.9923 7.57683C44.0568 10.5695 46.378 12.8569 49.4453 12.8569H50.5599C53.6272 12.8569 55.9484 10.579 56.0129 7.57683C56.0221 6.73812 56.0221 6.24252 56.0129 5.41334ZM53.2035 7.41481C53.1667 9.15894 51.9508 10.3408 50.302 10.4265C50.0993 10.4456 49.8967 10.4456 49.694 10.4265C48.036 10.3408 46.8294 9.15894 46.7925 7.41481C46.7741 6.69047 46.7741 6.28064 46.7925 5.5563C46.8294 3.83123 48.036 2.64941 49.694 2.56363C49.8967 2.54457 50.0993 2.54457 50.302 2.56363C51.9508 2.64941 53.1759 3.83123 53.2035 5.57536C53.2219 6.29971 53.2219 6.7 53.2035 7.41481Z" fill="#007BFB"/>
<path d="M8.82406 8.3107C8.49246 9.4544 7.60818 10.2359 6.41073 10.4075C6.08834 10.4551 5.76595 10.4551 5.45277 10.4075C3.96977 10.1978 2.92891 9.04457 2.89207 7.42434C2.87364 6.7 2.87364 6.29017 2.89207 5.56583C2.92891 3.93607 4.02504 2.74472 5.53567 2.57316C5.78437 2.54457 6.02386 2.54457 6.27256 2.57316C7.54371 2.71613 8.49246 3.50718 8.84248 4.69853L11.6058 4.14575C11.0071 1.8107 8.96223 0.152344 6.34625 0.152344H5.55409C2.47756 0.152344 0.156348 2.4302 0.0918693 5.42287C0.0826581 6.25205 0.0826581 6.73812 0.0918693 7.5673C0.156348 10.56 2.47756 12.8474 5.54488 12.8474H6.33704C9.00828 12.8474 11.0716 11.1223 11.615 8.70146L8.82406 8.3107Z" fill="#007BFB"/>
</g>
<defs>
<clipPath id="clip0_352_1480">
<rect width="94" height="13" fill="white"/>
</clipPath>
</defs>
</svg>
