<svg width="82" height="40" viewBox="0 0 82 40" fill="none" xmlns="http://www.w3.org/2000/svg">
<g clip-path="url(#clip0_352_1474)">
<path d="M96.2609 0.0722656H0V40.0723H96.2609V0.0722656Z" fill="white" fill-opacity="0.01"/>
<path fill-rule="evenodd" clip-rule="evenodd" d="M55.3687 32.2168C55.6671 32.2168 55.8164 32.2895 55.8164 32.6532V34.4713C55.8164 34.835 55.7418 34.9077 55.3687 34.9077H55.1448V32.2168H55.3687ZM77.4564 34.035C77.7549 34.035 77.8295 34.1077 77.8295 34.4713V35.1986C77.8295 35.4895 77.7549 35.635 77.4564 35.635H77.1579V34.1077H77.4564V34.035ZM53.13 32.6532C53.13 32.2895 53.2793 32.2168 53.5778 32.2168H53.8016V34.9077H53.5778C53.2793 34.9077 53.13 34.835 53.13 34.4713V32.6532ZM27.2366 38.1804H81.7098V29.3804H27.2366V38.1804ZM33.1316 30.7622H31.7139V33.0168H30.9676V30.7622H29.6245V36.5077H30.9676V33.9622H31.7139V36.5077H33.1316V30.7622ZM44.5486 30.7622H41.2653V36.5077H44.5486V35.4168H42.6831V34.035H44.3994V32.9441H42.6831V31.7804H44.5486V30.7622ZM57.0849 32.7259C57.0849 31.5623 56.488 31.2713 55.1448 31.2713V30.835H53.8016V31.2713C52.3838 31.2713 51.7869 31.5623 51.7869 32.7259V34.5441C51.7869 35.7077 52.3838 35.9986 53.8016 35.9986V36.5804H55.1448V35.9986C56.488 35.9986 57.0849 35.7077 57.0849 34.5441V32.7259ZM67.6811 30.7622H64.1739V31.8532H65.2932V36.5077H66.6364V31.8532H67.6811V30.7622ZM79.2473 34.4713C79.2473 33.3077 78.725 33.0168 77.3818 33.0168H77.1579V30.7622H75.7401V36.5077H77.1579C78.6504 36.5077 79.2473 36.2895 79.2473 35.0532V34.4713ZM23.5802 24.9441V34.035C21.1177 36.5804 17.5359 38.2532 13.6556 38.2532C6.11891 38.1804 0 32.2895 0 24.9441C0 17.6713 6.11891 11.7077 13.6556 11.7077V21.6713C11.7155 21.6713 9.70071 22.3986 8.20829 23.8532C7.83519 24.2168 7.5367 24.5804 7.23822 24.9441C5.22346 27.8532 5.52194 31.7804 8.20829 34.3259C9.70071 35.7804 11.6408 36.5077 13.6556 36.5077C15.5958 36.5077 17.5359 35.7804 19.0283 34.3259C20.5207 32.8713 20.5207 30.5441 19.0283 29.0895C17.5359 27.635 15.0734 27.635 13.581 29.0895V24.9441H23.5802ZM21.8639 7.05316C22.6847 10.5441 22.6847 12.7259 22.3116 15.1986C21.64 19.635 19.6253 23.0532 18.7298 24.2168C18.1329 23.4168 17.1628 21.8895 16.5658 20.3622C16.5658 20.3622 15.3719 17.5259 15.0734 14.835C14.7749 12.0713 14.9242 9.30771 15.8196 6.18043C16.6404 3.34407 18.2821 0.871342 18.7298 0.216797C18.9537 0.653161 21.0431 3.48952 21.8639 7.05316ZM18.7298 23.3441C19.1776 22.6168 19.8491 20.9441 19.7745 18.835C19.6999 16.6532 18.9537 15.0532 18.7298 14.6895C18.506 15.0532 17.6105 16.8713 17.6105 18.9804C17.6851 21.1623 18.2821 22.5441 18.7298 23.3441ZM21.64 13.0168C21.64 11.7077 21.5654 9.38043 20.8938 6.98043C20.2222 4.58043 18.8791 2.32589 18.7298 2.03498C18.506 2.32589 17.5359 4.14407 16.5658 7.05316C16.342 7.92589 15.8942 9.8168 15.8196 11.635C15.745 13.8168 16.0435 16.0713 16.1927 16.6532C16.1927 15.9259 16.1927 13.4532 16.6404 11.4895C17.0882 9.45316 17.9836 7.12589 18.7298 5.96225C19.476 7.19862 20.5207 9.88952 20.8192 11.4895C21.1923 13.0895 21.3416 15.1259 21.2669 16.6532C21.4162 15.7804 21.64 14.3259 21.64 13.0168ZM78.2773 11.635H81.7098V24.8713H79.0981V16.5804H79.0235L77.6057 24.9441H75.5163L74.1731 16.6532H74.0985V24.9441H71.4868V11.635H74.9193L76.6356 20.9441L78.2773 11.635ZM59.5474 18.9804C59.8459 18.9804 60.0698 18.7623 60.0698 18.3259V14.035C60.0698 13.5986 59.8459 13.3804 59.5474 13.3804H58.8758V18.9804H59.5474ZM56.2641 11.635H60.3683C62.2338 11.635 62.4576 13.0895 62.4576 14.035V18.035C62.4576 18.9804 62.1592 20.435 60.3683 20.435H58.8758V24.9441H56.2641V11.635ZM48.3543 11.635H54.3986V24.8713H51.9361V13.235H50.7422V24.8713H48.2797V11.635H48.3543ZM43.2055 20.2895V22.7623C43.2055 23.1259 43.4293 23.1986 43.5786 23.1986C43.8024 23.1986 43.9517 22.9804 43.9517 22.7623V19.7077C43.9517 19.2713 43.877 18.835 42.907 18.835H41.8623V17.3804H42.9816C43.7278 17.3804 44.0263 17.235 44.0263 16.3622V13.7441C44.0263 13.5259 43.877 13.3077 43.6532 13.3077C43.5039 13.3077 43.2801 13.3804 43.2801 13.7441V15.9259H40.6684V14.035C40.6684 13.0895 40.8176 11.635 42.6085 11.635H44.7725C46.638 11.635 46.7126 13.0895 46.7126 14.035V16.1441C46.7126 17.5986 45.7426 17.9622 44.9217 17.9622V18.1077C46.7126 18.035 46.7126 19.4168 46.7126 19.9259V22.6168C46.7126 23.5623 46.5634 25.0168 44.7725 25.0168H42.5339C40.743 25.0168 40.5937 23.5623 40.5937 22.6168V20.3622H43.2055V20.2895ZM36.5642 19.9259L36.1165 13.3077H35.9672L35.5195 19.9259H36.5642ZM33.9525 11.635H38.0566L39.3998 24.8713H36.8627L36.6388 21.3804H35.3703L35.1464 24.8713H32.6093L33.9525 11.635ZM27.2366 11.635H32.2362V13.3077H29.8483V24.9441H27.2366V11.635ZM67.9796 11.635C69.8451 11.635 69.9197 13.0895 69.9197 14.035V22.5441C69.9197 23.4895 69.7705 24.9441 67.9796 24.9441H65.8156C63.9501 24.9441 63.8754 23.4895 63.8754 22.5441V14.035C63.8754 13.0895 63.9501 11.635 65.8156 11.635H67.9796ZM66.8603 23.2713C67.1587 23.2713 67.4572 23.0532 67.4572 22.7623V13.8895V13.8168V13.7441C67.4572 13.4532 67.1587 13.3077 66.8603 13.3077C66.5618 13.3077 66.3379 13.5259 66.2633 13.7441V13.8168V13.8895V22.7623C66.3379 23.0532 66.5618 23.2713 66.8603 23.2713Z" fill="#1A7FC3"/>
</g>
<defs>
<clipPath id="clip0_352_1474">
<rect width="82" height="40" fill="white"/>
</clipPath>
</defs>
</svg>
