<svg width="130" height="22" viewBox="0 0 130 22" fill="none" xmlns="http://www.w3.org/2000/svg">
<path fill-rule="evenodd" clip-rule="evenodd" d="M21.0338 9.46926C20.8877 9.46926 20.7417 9.32578 20.7417 9.1823V6.59969C20.7417 5.78665 20.06 5.11709 19.2323 5.11709C18.4046 5.11709 17.7229 5.73882 17.7229 6.55187V15.7345C17.7229 16.5475 18.4046 17.2171 19.2323 17.2171C20.06 17.2171 20.7417 16.5475 20.7417 15.7345V12.3867C20.7417 12.2432 20.8877 12.0997 21.0338 12.0997H23.2248C23.3709 12.0997 23.5169 12.2432 23.5169 12.3867V15.7345C23.5169 16.5475 24.1986 17.2171 25.0263 17.2171C25.854 17.2171 26.5357 16.5475 26.5357 15.7345V6.59969C26.5357 5.78665 25.854 5.11709 25.0263 5.11709C24.1986 5.11709 23.5169 5.78665 23.5169 6.59969V9.1823C23.5169 9.32578 23.3709 9.46926 23.2248 9.46926H21.0338ZM10.4682 8.75187C10.4196 8.84752 10.3222 8.84752 10.2248 8.75187L8.17986 5.64317C7.88772 5.26056 7.44952 5.02143 6.96263 5.02143C6.91394 5.02143 6.86525 5.02143 6.81656 5.02143C6.76787 5.02143 6.71918 5.02143 6.6705 5.02143C5.84278 5.02143 5.16113 5.691 5.16113 6.50404V15.6867C5.16113 16.4997 5.84278 17.1693 6.6705 17.1693C7.49821 17.1693 8.17986 16.4997 8.17986 15.6867V11.191C8.17986 11.1432 8.17986 11.1432 8.22855 11.1432H8.27724L8.17986 11.0475L9.10495 12.1475C9.15364 12.1953 9.15364 12.2432 9.20233 12.291C9.49447 12.578 9.88398 12.7693 10.3222 12.7693C10.7604 12.7693 11.1499 12.578 11.442 12.291C11.4907 12.2432 11.5394 12.1953 11.5394 12.1475L12.4645 11.0475L12.3671 11.1432C12.3671 11.1432 12.3671 11.1432 12.4158 11.1432C12.4645 11.1432 12.4645 11.1432 12.4645 11.191V15.6867C12.4645 16.4997 13.1462 17.1693 13.9739 17.1693C14.8016 17.1693 15.4832 16.4997 15.4832 15.6867V6.50404V6.40839C15.4345 5.64317 14.7529 5.02143 13.9739 5.02143C13.9252 5.02143 13.8765 5.02143 13.8278 5.02143C13.7791 5.02143 13.7304 5.02143 13.6817 5.02143C13.1462 5.02143 12.7079 5.30839 12.4158 5.691L10.4682 8.75187ZM45.1349 7.84317H46.2548C45.6218 7.84317 45.1349 8.32143 45.1349 8.94317V7.84317ZM42.1162 6.45622V8.22578C42.1162 6.45622 43.5769 5.06926 45.3297 5.06926H47.7154C48.4945 5.06926 49.1274 5.691 49.1274 6.45622C49.1274 7.22143 48.4945 7.84317 47.7154 7.84317H45.1349V15.6867C45.1349 16.4997 44.4533 17.1693 43.6255 17.1693C42.7978 17.1693 42.1162 16.4997 42.1162 15.6867V6.45622ZM40.6555 11.0475C40.6555 14.4432 37.8802 17.1693 34.4233 17.1693C30.9664 17.1693 28.1911 14.4432 28.1911 11.0475C28.1911 7.65187 30.9664 4.92578 34.4233 4.92578C37.8802 4.92578 40.6555 7.65187 40.6555 11.0475ZM34.6181 7.50839L35.251 9.03882C35.5918 9.75622 35.3484 9.56491 36.1274 9.66056L37.8315 9.80404C38.1237 9.85187 38.2211 9.99535 37.9776 10.2345L36.663 11.3345C36.0787 11.8606 36.1761 11.5736 36.3222 12.3388L36.7117 13.9649C36.7604 14.2519 36.6143 14.3475 36.3709 14.204L34.9102 13.3432C34.2285 12.9606 34.5207 12.9606 33.839 13.3432L32.3784 14.204C32.0862 14.3475 31.9402 14.2519 32.0375 13.9649L32.427 12.3388C32.5731 11.5736 32.6705 11.8606 32.0862 11.3345L30.7716 10.2345C30.5282 10.0432 30.5769 9.85187 30.9177 9.80404L32.6218 9.66056C33.4008 9.56491 33.1574 9.75622 33.4982 9.03882L34.1312 7.50839C34.3259 7.22143 34.5207 7.22143 34.6181 7.50839ZM61.884 11.0475C61.884 14.4432 59.1087 17.1693 55.6518 17.1693C52.1948 17.1693 49.4196 14.4432 49.4196 11.0475C49.4196 7.65187 52.1948 4.92578 55.6518 4.92578C59.06 4.92578 61.884 7.65187 61.884 11.0475ZM55.8465 7.50839L56.4795 9.03882C56.8203 9.75622 56.5769 9.56491 57.3559 9.66056L59.06 9.80404C59.3521 9.85187 59.4495 9.99535 59.2061 10.2345L57.8915 11.3345C57.3072 11.8606 57.4046 11.5736 57.5506 12.3388L57.9402 13.9649C57.9888 14.2519 57.8428 14.3475 57.5993 14.204L56.1387 13.3432C55.457 12.9606 55.7491 12.9606 55.0675 13.3432L53.6068 14.204C53.3147 14.3475 53.1686 14.2519 53.266 13.9649L53.6555 12.3388C53.8016 11.5736 53.899 11.8606 53.3147 11.3345L52.0001 10.2345C51.7566 10.0432 51.8053 9.85187 52.1461 9.80404L53.8503 9.66056C54.6293 9.56491 54.3858 9.75622 54.7267 9.03882L55.3596 7.50839C55.5057 7.22143 55.7005 7.22143 55.8465 7.50839Z" fill="#F4F6FB"/>
<path fill-rule="evenodd" clip-rule="evenodd" d="M87.2022 13.9639V8.17695C87.2022 6.40739 88.6628 5.02043 90.4156 5.02043H93.4344C94.2134 5.02043 94.8464 5.64217 94.8464 6.40739C94.8464 7.17261 94.2134 7.79434 93.4344 7.79434C93.337 7.79434 93.2883 7.79434 93.1909 7.79434H90.9512C90.513 7.79434 90.1235 8.17695 90.1235 8.60739C90.1235 9.03782 90.513 9.42043 90.9512 9.42043H91.6329C94.0186 9.42043 95.6254 10.9509 95.6254 13.1987C95.6254 15.59 94.0186 17.1683 91.6329 17.1683H90.0261C88.4681 16.977 87.2022 15.59 87.2022 13.9639ZM72.1572 8.70304C72.1085 8.79869 72.0111 8.79869 71.9138 8.70304L69.8688 5.59434C69.5767 5.21174 69.1385 4.97261 68.6516 4.97261C68.6029 4.97261 68.5542 4.97261 68.5055 4.97261C68.4568 4.97261 68.4081 4.97261 68.3595 4.97261C67.5317 4.97261 66.8501 5.64217 66.8501 6.45521V15.6378C66.8501 16.4509 67.5317 17.1204 68.3595 17.1204C69.1872 17.1204 69.8688 16.4509 69.8688 15.6378V11.1422C69.8688 11.0943 69.8688 11.0943 69.9175 11.0943H69.9662L69.8688 10.9987L70.7939 12.0987C70.8426 12.1465 70.8426 12.1943 70.8913 12.2422C71.1834 12.5291 71.5729 12.7204 72.0111 12.7204C72.4493 12.7204 72.8389 12.5291 73.131 12.2422C73.1797 12.1943 73.2284 12.1465 73.2284 12.0987L74.1535 10.9987L74.0561 11.0943C74.0561 11.0943 74.0561 11.0943 74.1048 11.0943C74.1535 11.0943 74.1535 11.0943 74.1535 11.1422V15.6378C74.1535 16.4509 74.8351 17.1204 75.6628 17.1204C76.4905 17.1204 77.1722 16.4509 77.1722 15.6378V6.45521V6.35956C77.1235 5.59434 76.4419 4.97261 75.6628 4.97261C75.6141 4.97261 75.5655 4.97261 75.5168 4.97261C75.4681 4.97261 75.4194 4.97261 75.3707 4.97261C74.8351 4.97261 74.3969 5.25956 74.1048 5.64217L72.1572 8.70304ZM122.112 11.3335C122.112 11.19 122.064 11.19 122.015 11.2378L118.899 16.403C118.655 16.8813 118.12 17.2161 117.535 17.2161H117.487H117.438C116.61 17.2161 115.929 16.5465 115.929 15.7335V15.6856V6.50304C115.929 5.69 116.61 5.02043 117.438 5.02043C118.266 5.02043 118.947 5.69 118.947 6.50304V10.5204C118.947 10.6639 118.996 10.6639 119.045 10.5683L118.947 10.7117L122.112 5.59434C122.112 5.59434 122.112 5.54652 122.161 5.54652C122.453 5.11608 122.891 4.87695 123.427 4.87695H123.476H123.524C124.352 4.87695 125.034 5.54652 125.034 6.35956V15.59C125.034 16.403 124.352 17.0726 123.524 17.0726C122.697 17.0726 122.015 16.403 122.015 15.59V11.3335H122.112ZM79.0711 13.9639V8.17695C79.0711 6.40739 80.5317 5.02043 82.2846 5.02043H84.2808C85.0598 5.02043 85.6928 5.64217 85.6928 6.40739C85.6928 7.17261 85.0598 7.79434 84.2808 7.79434H82.7714C82.2846 7.79434 81.895 8.17695 81.895 8.65521C81.895 9.13347 82.2846 9.51608 82.7714 9.51608H83.9887C84.7677 9.51608 85.4007 10.1378 85.4007 10.903C85.4007 11.6683 84.7677 12.29 83.9887 12.29H82.9175C82.3819 12.29 81.895 12.7204 81.895 13.2943C81.895 13.8204 82.3332 14.2987 82.9175 14.2987H84.3782C85.2059 14.2987 85.8389 14.9683 85.8389 15.7335C85.8389 16.5465 85.1572 17.1683 84.3782 17.1683C84.2808 17.1683 84.2321 17.1683 84.1834 17.1683H82.0411C80.337 16.977 79.0711 15.59 79.0711 13.9639ZM97.2321 13.9639V8.17695C97.2321 6.40739 98.6928 5.02043 100.446 5.02043H102.442C103.221 5.02043 103.854 5.64217 103.854 6.40739C103.854 7.17261 103.221 7.79434 102.442 7.79434H100.884C100.397 7.79434 100.007 8.17695 100.007 8.65521C100.007 9.13347 100.397 9.51608 100.884 9.51608H102.101C102.88 9.51608 103.513 10.1378 103.513 10.903C103.513 11.6683 102.88 12.29 102.101 12.29H101.03C100.494 12.29 100.007 12.7204 100.007 13.2943C100.007 13.8204 100.446 14.2987 101.03 14.2987H102.491C103.318 14.2987 103.951 14.9683 103.951 15.7335C103.951 16.5465 103.27 17.1683 102.491 17.1683C102.393 17.1683 102.344 17.1683 102.296 17.1683H100.153C98.498 16.977 97.2321 15.59 97.2321 13.9639ZM110.329 5.02043H111.011C112.813 5.02043 114.225 6.45521 114.225 8.17695V15.6378C114.225 16.4509 113.543 17.1204 112.715 17.1204C111.888 17.1204 111.206 16.4509 111.206 15.6378V15.59V8.60739C111.206 8.17695 110.865 7.79434 110.378 7.79434C109.989 7.79434 109.697 8.03347 109.599 8.36826L108.528 15.59C108.528 16.403 107.846 17.0726 107.019 17.0726C106.191 17.0726 105.509 16.403 105.509 15.59C105.509 15.5422 105.509 15.5422 105.509 15.4943C105.509 15.3987 105.509 15.3509 105.558 15.2552L106.775 7.12478L106.629 8.17695C106.921 6.45521 108.577 5.02043 110.329 5.02043ZM97.2321 6.45521V6.40739V6.35956V6.45521ZM79.0711 6.45521V6.40739V6.35956V6.45521ZM91.4381 11.4291L91.7302 12.1943C91.8763 12.5291 91.7789 12.4335 92.1684 12.4813L92.9962 12.5291C93.1422 12.5291 93.1909 12.6248 93.0449 12.7204L92.4119 13.2465C92.1198 13.5335 92.1684 13.39 92.2658 13.7248L92.4606 14.5378C92.5093 14.6813 92.4119 14.7291 92.2658 14.6813L91.5355 14.2509C91.1947 14.0596 91.3407 14.0596 90.9999 14.2509L90.2696 14.6813C90.1235 14.777 90.0748 14.6813 90.0748 14.5378L90.2696 13.7248C90.3669 13.3422 90.4156 13.4856 90.1235 13.2465L89.4905 12.7204C89.3932 12.6248 89.3932 12.5291 89.5392 12.5291L90.367 12.4813C90.7565 12.4335 90.6104 12.5291 90.8052 12.1943L91.0973 11.4291C91.292 11.3335 91.3894 11.3335 91.4381 11.4291Z" fill="#F4F6FB"/>
<path fill-rule="evenodd" clip-rule="evenodd" d="M20.7901 9.23098C20.6441 9.23098 20.498 9.0875 20.498 8.94402V6.36141C20.498 5.54837 19.8164 4.8788 18.9886 4.8788C18.1609 4.8788 17.4793 5.50054 17.4793 6.31359V15.4962C17.4793 16.3092 18.1609 16.9788 18.9886 16.9788C19.8164 16.9788 20.498 16.3092 20.498 15.4962V12.1484C20.498 12.0049 20.6441 11.8614 20.7901 11.8614H22.9811C23.1272 11.8614 23.2733 12.0049 23.2733 12.1484V15.4962C23.2733 16.3092 23.9549 16.9788 24.7826 16.9788C25.6104 16.9788 26.292 16.3092 26.292 15.4962V6.36141C26.292 5.54837 25.6104 4.8788 24.7826 4.8788C23.9549 4.8788 23.2733 5.54837 23.2733 6.36141V8.94402C23.2733 9.0875 23.1272 9.23098 22.9811 9.23098H20.7901ZM10.2246 8.56141C10.1759 8.65707 10.0785 8.65707 9.98115 8.56141L7.93621 5.45272C7.69276 5.07011 7.25456 4.78315 6.71898 4.78315C6.67029 4.78315 6.6216 4.78315 6.57291 4.78315C6.52422 4.78315 6.47553 4.78315 6.42684 4.78315C5.59913 4.78315 4.91748 5.45272 4.91748 6.26576V15.4484C4.91748 16.2614 5.59913 16.931 6.42684 16.931C7.25456 16.931 7.93621 16.2614 7.93621 15.4484V10.9527C7.93621 10.9049 7.93621 10.9049 7.9849 10.9049H8.03359L7.93621 10.8092L8.8613 11.9092C8.90999 11.9571 8.90999 12.0049 8.95868 12.0527C9.25081 12.3397 9.64033 12.531 10.0785 12.531C10.5167 12.531 10.9062 12.3397 11.1984 12.0527C11.2471 12.0049 11.2958 11.9571 11.2958 11.9092L12.2209 10.8092L12.1235 10.9049C12.1235 10.9049 12.1235 10.9049 12.1722 10.9049C12.2209 10.9049 12.2209 10.9049 12.2209 10.9527V15.4484C12.2209 16.2614 12.9025 16.931 13.7302 16.931C14.5579 16.931 15.2396 16.2614 15.2396 15.4484V6.31359V6.21793C15.1909 5.45272 14.5092 4.83098 13.7302 4.83098C13.6815 4.83098 13.6328 4.83098 13.5841 4.83098C13.5355 4.83098 13.4868 4.83098 13.4381 4.83098C12.9025 4.83098 12.4643 5.11793 12.1722 5.50054L10.2246 8.56141ZM44.94 7.65272H46.0598C45.4268 7.65272 44.94 8.13098 44.94 8.75272V7.65272ZM41.8725 6.26576V8.03533C41.8725 6.26576 43.3332 4.8788 45.086 4.8788H47.4718C48.2508 4.8788 48.8838 5.50054 48.8838 6.26576C48.8838 7.03098 48.2508 7.65272 47.4718 7.65272H44.8913V15.4962C44.8913 16.3092 44.2096 16.9788 43.3819 16.9788C42.5542 16.9788 41.8725 16.3092 41.8725 15.4962V6.26576ZM40.4605 10.8092C40.4605 14.2049 37.6853 16.931 34.2283 16.931C30.7714 16.931 27.9961 14.2049 27.9961 10.8092C27.9961 7.41359 30.7714 4.6875 34.2283 4.6875C37.6366 4.6875 40.4605 7.46141 40.4605 10.8092ZM34.4231 7.27011L35.0561 8.80054C35.3969 9.51793 35.1534 9.32663 35.9325 9.42228L37.6366 9.56576C37.9287 9.61359 38.0261 9.75707 37.7826 9.9962L36.468 11.0962C35.8838 11.6223 35.9811 11.3353 36.1272 12.1005L36.5167 13.7266C36.5654 14.0136 36.4194 14.1092 36.1759 13.9658L34.7152 13.1049C34.0336 12.7223 34.3257 12.7223 33.6441 13.1049L32.1834 13.9658C31.8913 14.1092 31.7452 14.0136 31.8426 13.7266L32.2321 12.1005C32.3782 11.3353 32.4755 11.6223 31.8913 11.0962L30.5767 9.9962C30.3332 9.80489 30.3819 9.61359 30.7227 9.56576L32.4268 9.42228C33.2059 9.32663 32.9624 9.51793 33.3032 8.80054L33.9362 7.27011C34.0823 6.98315 34.277 6.98315 34.4231 7.27011ZM61.6403 10.8092C61.6403 14.2049 58.865 16.931 55.4081 16.931C51.9512 16.931 49.1759 14.2049 49.1759 10.8092C49.1759 7.41359 51.9512 4.6875 55.4081 4.6875C58.8164 4.6875 61.6403 7.46141 61.6403 10.8092ZM55.6029 7.27011L56.2358 8.80054C56.5767 9.51793 56.3332 9.32663 57.1122 9.42228L58.8164 9.56576C59.1085 9.61359 59.2059 9.75707 58.9624 9.9962L57.6478 11.0962C57.0635 11.6223 57.1609 11.3353 57.307 12.1005L57.6965 13.7266C57.7452 14.0136 57.5991 14.1092 57.3557 13.9658L55.895 13.1049C55.2134 12.7223 55.5055 12.7223 54.8238 13.1049L53.3632 13.9658C53.071 14.1092 52.925 14.0136 53.0223 13.7266L53.4119 12.1005C53.5579 11.3353 53.6553 11.6223 53.071 11.0962L51.7564 9.9962C51.513 9.80489 51.5617 9.61359 51.9025 9.56576L53.6066 9.42228C54.3856 9.32663 54.1422 9.51793 54.483 8.80054L55.116 7.27011C55.3107 6.98315 55.5055 6.98315 55.6029 7.27011Z" fill="#FF0000"/>
<path fill-rule="evenodd" clip-rule="evenodd" d="M86.9586 13.7256V7.9865C86.9586 6.21693 88.4193 4.82998 90.1721 4.82998H93.1909C93.9699 4.82998 94.6028 5.45172 94.6028 6.21693C94.6028 6.98215 93.9699 7.60389 93.1909 7.60389C93.0935 7.60389 93.0448 7.60389 92.9474 7.60389H90.7077C90.2695 7.60389 89.88 7.9865 89.88 8.41693C89.88 8.84737 90.2695 9.22998 90.7077 9.22998H91.3894C93.7751 9.22998 95.3819 10.7604 95.3819 13.0082C95.3819 15.3995 93.7751 16.9778 91.3894 16.9778H89.7826C88.2246 16.7387 86.9586 15.3995 86.9586 13.7256ZM71.9624 8.46476C71.9137 8.56041 71.8163 8.56041 71.7189 8.46476L69.674 5.35606C69.3819 4.97345 68.9437 4.73432 68.4568 4.73432C68.4081 4.73432 68.3594 4.73432 68.3107 4.73432C68.262 4.73432 68.2133 4.73432 68.1646 4.73432C67.3369 4.73432 66.6553 5.40389 66.6553 6.21693V15.3995C66.6553 16.2126 67.3369 16.8821 68.1646 16.8821C68.9924 16.8821 69.674 16.2126 69.674 15.3995V10.9039C69.674 10.8561 69.674 10.8561 69.7227 10.8561H69.7714L69.674 10.7604L70.5991 11.8604C70.6478 11.9082 70.6478 11.9561 70.6965 12.0039C70.9886 12.2908 71.3781 12.4822 71.8163 12.4822C72.2545 12.4822 72.644 12.2908 72.9362 12.0039C72.9849 11.9561 73.0336 11.9082 73.0336 11.8604L73.9586 10.7604L73.8613 10.8561C73.8613 10.8561 73.8613 10.8561 73.91 10.8561C73.9586 10.8561 73.9586 10.8561 73.9586 10.9039V15.3995C73.9586 16.2126 74.6403 16.8821 75.468 16.8821C76.2957 16.8821 76.9774 16.2126 76.9774 15.3995V6.21693V6.12128C76.9287 5.35606 76.247 4.73432 75.468 4.73432C75.4193 4.73432 75.3706 4.73432 75.3219 4.73432C75.2733 4.73432 75.2246 4.73432 75.1759 4.73432C74.6403 4.73432 74.2021 5.02128 73.91 5.40389L71.9624 8.46476ZM121.917 11.0952C121.917 10.9517 121.869 10.9517 121.82 10.9995L118.704 16.1648C118.461 16.643 117.925 16.9778 117.341 16.9778H117.292H117.243C116.416 16.9778 115.734 16.3082 115.734 15.4952V15.4474V6.31258C115.734 5.49954 116.416 4.82998 117.243 4.82998C118.071 4.82998 118.753 5.49954 118.753 6.31258V10.2821C118.753 10.4256 118.801 10.4256 118.85 10.33L118.753 10.4735L121.917 5.35606C121.917 5.35606 121.917 5.30824 121.966 5.30824C122.258 4.8778 122.696 4.63867 123.232 4.63867H123.281H123.329C124.157 4.63867 124.839 5.30824 124.839 6.12128V15.3517C124.839 16.1648 124.157 16.8343 123.329 16.8343C122.502 16.8343 121.82 16.1648 121.82 15.3517V11.0952H121.917ZM78.8276 13.7256V7.9865C78.8276 6.21693 80.2882 4.82998 82.041 4.82998H84.0373C84.8163 4.82998 85.4493 5.45172 85.4493 6.21693C85.4493 6.98215 84.8163 7.60389 84.0373 7.60389H82.4792C81.9924 7.60389 81.6028 7.9865 81.6028 8.46476C81.6028 8.94302 81.9924 9.32563 82.4792 9.32563H83.6965C84.4755 9.32563 85.1085 9.94737 85.1085 10.7126C85.1085 11.4778 84.4755 12.0995 83.6965 12.0995H82.6253C82.0897 12.0995 81.6028 12.53 81.6028 13.1039C81.6028 13.63 82.041 14.1082 82.6253 14.1082H84.086C84.9137 14.1082 85.5467 14.7778 85.5467 15.543C85.5467 16.3561 84.865 16.9778 84.086 16.9778C83.9886 16.9778 83.9399 16.9778 83.8912 16.9778H81.7976C80.0935 16.7387 78.8276 15.3995 78.8276 13.7256ZM96.9886 13.7256V7.9865C96.9886 6.21693 98.4493 4.82998 100.202 4.82998H102.198C102.977 4.82998 103.61 5.45172 103.61 6.21693C103.61 6.98215 102.977 7.60389 102.198 7.60389H100.64C100.153 7.60389 99.7639 7.9865 99.7639 8.46476C99.7639 8.94302 100.153 9.32563 100.64 9.32563H101.858C102.637 9.32563 103.27 9.94737 103.27 10.7126C103.27 11.4778 102.637 12.0995 101.858 12.0995H100.786C100.251 12.0995 99.7639 12.53 99.7639 13.1039C99.7639 13.63 100.202 14.1082 100.786 14.1082H102.247C103.075 14.1082 103.708 14.7778 103.708 15.543C103.708 16.3561 103.026 16.9778 102.247 16.9778C102.15 16.9778 102.101 16.9778 102.052 16.9778H99.91C98.2545 16.7387 96.9886 15.3995 96.9886 13.7256ZM110.135 4.78215H110.816C112.618 4.78215 114.03 6.21693 114.03 7.93867V15.3995C114.03 16.2126 113.348 16.8821 112.52 16.8821C111.693 16.8821 111.011 16.2126 111.011 15.3995V15.3517V8.41693C111.011 7.9865 110.67 7.60389 110.183 7.60389C109.794 7.60389 109.502 7.84302 109.404 8.1778L108.333 15.3995C108.333 16.2126 107.652 16.8821 106.824 16.8821C105.996 16.8821 105.314 16.2126 105.314 15.3995C105.314 15.3517 105.314 15.3517 105.314 15.3039C105.314 15.2082 105.314 15.1604 105.363 15.0648L106.58 6.93432L106.434 7.9865C106.678 6.21693 108.333 4.78215 110.135 4.78215ZM96.9886 6.21693V6.16911V6.12128V6.21693ZM78.8276 6.21693V6.16911V6.12128V6.21693ZM91.2433 11.2387L91.5354 12.0039C91.6815 12.3387 91.5841 12.243 91.9736 12.2908L92.8013 12.3387C92.9474 12.3387 92.9961 12.4343 92.85 12.53L92.2171 13.0561C91.9249 13.343 91.9736 13.1995 92.071 13.5343L92.2658 14.3474C92.3145 14.4908 92.2171 14.5387 92.071 14.4908L91.3407 14.0604C90.9998 13.8691 91.1459 13.8691 90.8051 14.0604L90.0748 14.4908C89.9287 14.5865 89.88 14.4908 89.88 14.3474L90.0748 13.5343C90.1721 13.1517 90.2208 13.2952 89.9287 13.0561L89.2957 12.53C89.1983 12.4343 89.1983 12.3387 89.3444 12.3387L90.1721 12.2908C90.5616 12.243 90.4156 12.3387 90.6103 12.0039L90.9025 11.2387C91.0972 11.0952 91.1459 11.0952 91.2433 11.2387Z" fill="#FF0000"/>
</svg>
