<svg width="137" height="16" viewBox="0 0 137 16" fill="none" xmlns="http://www.w3.org/2000/svg">
<g clip-path="url(#clip0_352_1514)">
<path fill-rule="evenodd" clip-rule="evenodd" d="M135.076 0H88.6414C87.5642 0 86.6909 0.875077 86.6909 1.95446V13.8455C86.6909 14.9249 87.5642 15.8 88.6414 15.8H135.076C136.154 15.8 137.027 14.9249 137.027 13.8455V1.95446C137.027 0.875077 136.154 0 135.076 0Z" fill="#007BFB"/>
<path fill-rule="evenodd" clip-rule="evenodd" d="M33.1369 3.12109L30.1933 10.9925L27.2282 3.12109H23.5488V13.6165H25.7567V5.63617L28.8292 13.6165H31.2533L34.3265 5.59309V13.6165H36.6854V3.12109H33.1369Z" fill="#007BFB"/>
<path fill-rule="evenodd" clip-rule="evenodd" d="M52.0966 3.12109H60.2126V13.6165H57.7013V5.33279H54.3899C54.3684 6.80786 54.3254 8.78078 54.2818 9.88724C54.1958 12.6411 53.3949 13.6165 51.036 13.6165H49.9097V11.4048H50.5379C51.5986 11.4048 51.9443 10.9279 52.01 9.43186C52.0751 7.82693 52.0966 4.63863 52.0966 3.12109Z" fill="#007BFB"/>
<path fill-rule="evenodd" clip-rule="evenodd" d="M73.0498 3.12109H82.5936V5.33279H79.066V13.6165H76.5768V5.33279H73.0498V3.12109Z" fill="#007BFB"/>
<path fill-rule="evenodd" clip-rule="evenodd" d="M15.6415 11.7849C14.6595 11.7572 14.0902 11.1874 14.0902 10.4656C14.0902 9.86925 14.3585 9.57633 14.7135 9.36956C15.0857 9.15171 15.569 9.07725 16.3201 9.05017C17.0423 9.02433 17.6301 8.99233 18.7497 8.99233C18.7497 10.7837 17.6252 11.684 16.2286 11.7794C16.0081 11.7948 15.8724 11.7923 15.6415 11.7849ZM17.0528 2.9043H16.1543C13.9962 2.9043 12.3601 4.21999 11.9849 6.17756L14.2787 6.54673C14.5919 5.61384 15.3135 4.97753 16.2255 4.93568C16.5197 4.92214 16.4485 4.92522 16.7433 4.93568C18.0993 4.9843 18.711 5.63476 18.711 7.2434C16.1432 7.2434 14.3868 7.12217 13.0965 7.97448C12.042 8.67171 11.5894 9.44396 11.5894 10.6655C11.5894 12.4323 12.962 13.8323 15.1772 13.8323H15.4818C17.0466 13.8323 18.3099 13.2225 18.8246 12.4858V13.6163L21.1356 13.6176V7.29079C21.1356 4.84953 19.8312 2.9043 17.0528 2.9043Z" fill="#007BFB"/>
<path fill-rule="evenodd" clip-rule="evenodd" d="M67.0234 4.93488C67.2862 4.92072 67.3802 4.92072 67.6431 4.93488C68.7375 4.98965 69.889 5.70165 69.9995 7.11764H64.611C64.7363 5.85365 65.749 5.00442 67.0234 4.93488ZM72.4672 9.07825V8.0961C72.4672 4.70842 70.3447 2.95703 67.6019 2.95703H67.0652C64.1148 2.95703 62.2318 4.97303 62.1342 7.81795C62.1213 8.23456 62.1213 8.4081 62.1342 8.97672C62.2042 11.8081 64.1842 13.7139 66.8306 13.7835C67.3157 13.797 67.2525 13.7958 67.7106 13.7835C70.0143 13.7183 71.7578 12.3866 72.2725 10.645L70.0438 10.2549C69.4996 11.3459 68.4599 11.7644 67.6296 11.8063C67.3661 11.8204 67.3286 11.8173 67.0652 11.8063C65.7638 11.7527 64.5975 10.7293 64.5975 9.24502V9.07825H72.4672Z" fill="#007BFB"/>
<path fill-rule="evenodd" clip-rule="evenodd" d="M46.7572 9.15456C46.7284 10.6376 45.6512 11.645 44.2024 11.7183C43.9248 11.7324 43.942 11.7324 43.6644 11.7183C42.2009 11.645 41.1384 10.6376 41.1089 9.15456C41.0948 8.53795 41.0948 8.18779 41.1089 7.57056C41.1384 6.10288 42.2009 5.09549 43.6644 5.02226C43.942 5.00749 43.9248 5.00749 44.2024 5.02226C45.6512 5.09549 46.7284 6.10288 46.7572 7.58656C46.7714 8.20318 46.7714 8.53795 46.7572 9.15456ZM49.2255 7.44256C49.1696 4.90226 47.1251 2.95703 44.4235 2.95703H43.4439C40.7417 2.95703 38.6972 4.90226 38.6419 7.4561C38.6272 8.16379 38.6272 8.57733 38.6419 9.28441C38.6972 11.8389 40.7417 13.7835 43.4439 13.7835H44.4235C47.1251 13.7835 49.1696 11.8389 49.2255 9.28441C49.239 8.57733 49.239 8.15026 49.2255 7.44256Z" fill="#007BFB"/>
<path fill-rule="evenodd" clip-rule="evenodd" d="M7.69831 9.91333C7.40659 10.8863 6.6254 11.5539 5.57582 11.7004C5.27366 11.7416 4.97335 11.7312 4.73076 11.6973C3.4257 11.5139 2.50633 10.5336 2.47869 9.15456C2.46395 8.53795 2.46395 8.18779 2.47869 7.57056C2.50694 6.18226 3.47115 5.16688 4.80016 5.02472C4.87692 5.01549 5.16619 4.99026 5.44747 5.02042C6.56582 5.14042 7.40597 5.81365 7.70875 6.83456L10.1408 6.36379C9.61874 4.37242 7.81622 2.95703 5.51195 2.95703H4.81367C2.11143 2.95703 0.0663277 4.90226 0.0110546 7.4561C-0.00368487 8.16379 -0.00368487 8.57672 0.0110546 9.28441C0.0663277 11.8389 2.11143 13.7835 4.81367 13.7835H5.51195C7.86106 13.7835 9.68077 12.3133 10.161 10.2512L7.69831 9.91333Z" fill="#007BFB"/>
<path fill-rule="evenodd" clip-rule="evenodd" d="M91.9647 3.86719H99.6992L97.8899 12.5503H95.6987L97.0621 5.97426H93.723L92.3467 12.5503H90.1548L91.9647 3.86719Z" fill="#F4F6FB"/>
<path fill-rule="evenodd" clip-rule="evenodd" d="M103.282 3.86719H109.896L108.087 12.5503H105.882L107.258 5.96134H104.977C104.735 7.02105 104.455 8.33612 104.162 9.60074C103.613 11.9115 102.67 12.5503 100.835 12.5503H99.854L100.3 10.3792H100.733C101.472 10.3792 101.893 10.0604 102.097 9.24258C102.428 7.86351 102.9 5.75703 103.282 3.86719Z" fill="#F4F6FB"/>
<path fill-rule="evenodd" clip-rule="evenodd" d="M121.544 7.53092C121.544 6.44538 120.932 5.73028 119.824 5.73028C118.205 5.73028 117.211 7.32661 117.211 8.92291C117.211 9.98261 117.887 10.6848 118.919 10.6848C120.588 10.6848 121.544 9.16538 121.544 7.53092ZM114.955 9.25461H113.643L112.955 12.5494H110.763L112.573 3.86628H114.764L114.077 7.14815H115.274C115.873 5.28351 117.377 3.73828 120.002 3.73828C122.385 3.73828 123.8 5.11736 123.8 7.27553C123.8 9.9063 122.321 12.6768 118.74 12.6768C116.46 12.6768 114.994 11.374 114.955 9.25461Z" fill="#F4F6FB"/>
<path fill-rule="evenodd" clip-rule="evenodd" d="M131.466 9.31861L133.607 9.7143C132.944 11.5401 131.593 12.6768 129.261 12.6768C127.082 12.6768 125.604 11.3235 125.604 9.16538C125.604 6.50938 127.209 3.73828 130.51 3.73828C132.74 3.73828 133.977 4.86197 134.079 6.70076L131.836 7.07122C131.746 6.31799 131.287 5.73028 130.319 5.73028C128.802 5.73028 127.847 7.28845 127.847 8.92291C127.847 10.0466 128.459 10.6848 129.427 10.6848C130.37 10.6848 131.096 10.1358 131.466 9.31861Z" fill="#F4F6FB"/>
</g>
<defs>
<clipPath id="clip0_352_1514">
<rect width="137" height="16" fill="white"/>
</clipPath>
</defs>
</svg>
