<svg width="114" height="28" viewBox="0 0 114 28" fill="none" xmlns="http://www.w3.org/2000/svg">
<g clip-path="url(#clip0_352_1488)">
<path d="M28.4802 16.7383H17.0928L28.4802 27.8892H39.8677L28.4802 16.7383Z" fill="#E31231"/>
<path d="M11.3992 0.0117188H0.0117188L11.3992 11.1627L5.70546 16.7381H17.0929L22.7867 11.1627L11.3992 0.0117188Z" fill="#00519E"/>
<path d="M36.9295 4.32617V6.70132H33.9801V14.362H31.4293V6.70132H28.48V4.32617H36.9295Z" fill="#00519E"/>
<path d="M52.0066 10.6153L55.8555 4.32617H58.4974V14.362H56.0377V8.05058L52.1888 14.362H49.5469V4.32617H52.0066V10.6153Z" fill="#00519E"/>
<path d="M63.7241 7.86102H64.0202L66.9923 4.32617H70.2719L66.1383 8.98726L70.6136 14.362H67.2429L63.9747 10.147H63.7241V14.362H61.1733V4.32617H63.7241V7.86102Z" fill="#00519E"/>
<path d="M75.7723 4.32617C72.6977 4.32617 70.6821 6.37794 70.6821 9.34409C70.6821 12.3102 72.7433 14.362 75.7723 14.362C78.8014 14.362 80.8284 12.2879 80.8284 9.32179C80.8284 6.35564 78.8469 4.32617 75.7723 4.32617ZM75.7723 12.0203C74.1211 12.0203 73.1988 10.9052 73.1988 9.34409C73.1988 7.78296 74.1439 6.66787 75.7723 6.66787C77.4007 6.66787 78.3117 7.77181 78.3117 9.32179C78.3117 10.8718 77.4235 12.0092 75.7723 12.0203Z" fill="#00519E"/>
<path d="M43.5455 4.32617H39.1841V14.362H41.7349V11.6523H43.5113C45.7547 11.6523 47.4969 10.2808 47.4969 8.00598C47.4969 5.75349 45.7774 4.32617 43.5455 4.32617ZM43.6024 9.26604H41.7349V6.70132H43.5569C44.4337 6.70132 44.9461 7.11391 44.9461 7.99483C44.9575 8.8423 44.4565 9.26604 43.6024 9.26604Z" fill="#00519E"/>
<path d="M109.935 4.32617H105.573V14.362H108.124V11.6523H109.9C112.144 11.6523 113.886 10.2808 113.886 8.00598C113.886 5.75349 112.167 4.32617 109.935 4.32617ZM109.992 9.26604H108.124V6.70132H109.946C110.823 6.70132 111.335 7.11391 111.335 7.99483C111.335 8.8423 110.834 9.26604 109.992 9.26604Z" fill="#00519E"/>
<path d="M98.5585 4.32617C95.4838 4.32617 93.4683 6.37794 93.4683 9.34409C93.4683 12.3102 95.5294 14.362 98.5585 14.362C101.588 14.362 103.615 12.2879 103.615 9.32179C103.615 6.35564 101.633 4.32617 98.5585 4.32617ZM98.5585 12.0203C96.9073 12.0203 95.9849 10.9052 95.9849 9.34409C95.9849 7.78296 96.9301 6.66787 98.5585 6.66787C100.187 6.66787 101.098 7.77181 101.098 9.32179C101.098 10.8718 100.221 12.0092 98.5585 12.0203Z" fill="#00519E"/>
<path d="M86.4083 6.70075C86.3513 7.39211 86.2944 8.09462 86.2147 8.78598C86.135 9.52194 86.0325 10.2356 85.8958 10.9381C85.4973 12.9564 84.4041 14.2499 82.3543 14.3503C82.1494 14.3614 81.9444 14.3614 81.728 14.3503V11.9417C82.8668 11.9751 83.1856 11.5514 83.402 10.5032C83.5386 9.82301 83.6639 8.90864 83.755 7.96081C83.8803 6.74536 83.9827 5.52991 84.0511 4.31445H91.6807V14.328H89.1299V6.70075H86.4083Z" fill="#00519E"/>
</g>
<defs>
<clipPath id="clip0_352_1488">
<rect width="114" height="28" fill="white"/>
</clipPath>
</defs>
</svg>
