<svg width="125" height="20" viewBox="0 0 125 20" fill="none" xmlns="http://www.w3.org/2000/svg">
<g clip-path="url(#clip0_352_1500)">
<path d="M55.9186 6.10419L58.5135 4.17578H49.8262V15.7274H58.5135V13.799H52.3083V10.8496H57.611V8.92119H52.3083V6.10419H55.9186Z" fill="#21A038"/>
<path d="M43.2642 8.67541H40.2556V6.10419H45.0694L47.6643 4.17578H37.7734V15.7274H42.9445C45.8403 15.7274 47.5138 14.404 47.5138 12.0974C47.5138 9.88539 46.0095 8.67541 43.2642 8.67541ZM42.8505 13.799H40.2556V10.6038H42.8505C44.43 10.6038 45.1634 11.1332 45.1634 12.2108C45.1634 13.2885 44.3736 13.799 42.8505 13.799Z" fill="#21A038"/>
<path d="M65.5463 4.17578H60.8267V15.7274H63.3087V12.4566H65.5652C68.5737 12.4566 70.4541 10.8685 70.4541 8.3162C70.4541 5.76388 68.5738 4.17578 65.5463 4.17578ZM65.49 10.5282H63.2899V6.10419H65.49C67.0883 6.10419 67.9533 6.89824 67.9533 8.3162C67.9533 9.73415 67.0883 10.5282 65.49 10.5282Z" fill="#21A038"/>
<path d="M33.5233 13.2326C32.8652 13.5918 32.1318 13.7809 31.3796 13.7809C29.142 13.7809 27.5248 12.1739 27.5248 9.96189C27.5248 7.74988 29.142 6.14287 31.3796 6.14287C32.1882 6.12396 32.978 6.38864 33.6361 6.8613L35.4225 5.53787L35.3096 5.42443C34.2755 4.49804 32.8839 4.02539 31.3045 4.02539C29.5933 4.02539 28.0325 4.61147 26.9044 5.67021C25.7761 6.76677 25.1367 8.29816 25.1744 9.88626C25.1556 11.4933 25.7761 13.0436 26.9044 14.1779C28.089 15.2934 29.6684 15.9172 31.2856 15.8795C33.072 15.8795 34.6327 15.2556 35.6857 14.1212L34.0874 12.9301L33.5233 13.2326Z" fill="#21A038"/>
<path d="M100.296 4.19469V15.7462H102.778V11.0198H108.062V15.7462H110.544V4.19469H108.062V8.9401H102.778V4.19469H100.296ZM96.0278 15.7462H98.6415L93.7902 4.19469H91.2704L86.325 15.7462H88.826L89.8226 13.4208H95.0877L96.0278 15.7462ZM90.5748 11.4924L92.4928 6.86044L94.2979 11.4924H90.5748ZM116.11 11.0765H117.652L121.45 15.7274H124.647L119.57 9.75306L124.008 4.17578H121.169L117.483 9.12916H116.11V4.17578H113.628V15.7274H116.11V11.0765ZM78.1267 8.69432V6.1231H84.614V4.19469H75.6445V15.7462H80.8156C83.7114 15.7462 85.3849 14.4229 85.3849 12.1163C85.3849 9.9043 83.8806 8.69432 81.1352 8.69432H78.1267ZM78.1267 13.8179V10.6227H80.7216C82.301 10.6227 83.0344 11.1521 83.0344 12.2297C83.0344 13.3074 82.2634 13.8367 80.7216 13.8367H78.1267V13.8179Z" fill="#21A038"/>
<path d="M17.4085 4.09961C17.8597 4.6857 18.2358 5.32851 18.5555 6.00912L9.86816 12.456L6.22021 10.1495V7.38927L9.84935 9.67689L17.4085 4.09961Z" fill="#21A038"/>
<path d="M2.51645 9.96032C2.51645 9.82797 2.51645 9.71453 2.53526 9.58219L0.33521 9.46875C0.33521 9.62 0.316406 9.79015 0.316406 9.94141C0.316406 12.5883 1.38822 14.9893 3.11817 16.7287L4.67889 15.1595C3.34382 13.836 2.51645 12.0022 2.51645 9.96032Z" fill="url(#paint0_linear_352_1500)"/>
<path d="M9.84896 2.58701C9.98058 2.58701 10.0934 2.58701 10.225 2.60591L10.3379 0.393906C10.1874 0.393906 10.0182 0.375 9.86776 0.375C7.23522 0.375 4.84714 1.45264 3.11719 3.192L4.67791 4.7612C5.99417 3.41887 7.83695 2.58701 9.84896 2.58701Z" fill="url(#paint1_linear_352_1500)"/>
<path d="M9.84925 17.3344C9.71763 17.3344 9.60479 17.3344 9.47317 17.3154L9.36035 19.5275C9.51078 19.5275 9.68001 19.5463 9.83044 19.5463C12.4629 19.5463 14.851 18.4687 16.581 16.7294L15.0202 15.1602C13.704 16.5214 11.8801 17.3344 9.84925 17.3344Z" fill="url(#paint2_linear_352_1500)"/>
<path d="M13.9869 3.87395L15.8485 2.4938C14.2126 1.17038 12.1254 0.357422 9.8501 0.357422V2.56943C11.392 2.58833 12.8212 3.06098 13.9869 3.87395Z" fill="url(#paint3_linear_352_1500)"/>
<path d="M19.4021 9.96068C19.4021 9.3746 19.3457 8.80742 19.2517 8.24023L17.2021 9.77162C17.2021 9.82835 17.2021 9.90397 17.2021 9.96068C17.2021 12.1349 16.2618 14.0823 14.7764 15.4245L16.2618 17.0693C18.1798 15.33 19.4021 12.7777 19.4021 9.96068Z" fill="#21A038"/>
<path d="M9.84905 17.3354C7.68661 17.3354 5.74982 16.3901 4.41475 14.8965L2.77881 16.3901C4.52757 18.3373 7.04727 19.5473 9.84905 19.5473V17.3354Z" fill="url(#paint4_linear_352_1500)"/>
<path d="M4.94215 4.49835L3.45665 2.85352C1.51985 4.61178 0.316406 7.14519 0.316406 9.96219H2.51645C2.51645 7.80689 3.45665 5.84068 4.94215 4.49835Z" fill="url(#paint5_linear_352_1500)"/>
</g>
<defs>
<linearGradient id="paint0_linear_352_1500" x1="2.88341" y1="16.4595" x2="0.645937" y2="9.92793" gradientUnits="userSpaceOnUse">
<stop offset="0.1444" stop-color="#F2E913"/>
<stop offset="0.3037" stop-color="#E7E518"/>
<stop offset="0.5823" stop-color="#CADB26"/>
<stop offset="0.891" stop-color="#A3CD39"/>
</linearGradient>
<linearGradient id="paint1_linear_352_1500" x1="3.74431" y1="2.94239" x2="9.44394" y2="0.748861" gradientUnits="userSpaceOnUse">
<stop offset="0.0592" stop-color="#0FA8E0"/>
<stop offset="0.5385" stop-color="#0099F9"/>
<stop offset="0.9234" stop-color="#0291EB"/>
</linearGradient>
<linearGradient id="paint2_linear_352_1500" x1="9.23117" y1="17.6651" x2="16.0284" y2="16.1138" gradientUnits="userSpaceOnUse">
<stop offset="0.1226" stop-color="#A3CD39"/>
<stop offset="0.2846" stop-color="#86C339"/>
<stop offset="0.8693" stop-color="#21A038"/>
</linearGradient>
<linearGradient id="paint3_linear_352_1500" x1="9.39807" y1="1.76631" x2="15.0485" y2="3.52699" gradientUnits="userSpaceOnUse">
<stop offset="0.0566" stop-color="#0291EB"/>
<stop offset="0.79" stop-color="#0C8ACB"/>
</linearGradient>
<linearGradient id="paint4_linear_352_1500" x1="3.3382" y1="16.7405" x2="9.40642" y2="19.0303" gradientUnits="userSpaceOnUse">
<stop offset="0.1324" stop-color="#F2E913"/>
<stop offset="0.2977" stop-color="#EBE716"/>
<stop offset="0.5306" stop-color="#D9E01F"/>
<stop offset="0.8023" stop-color="#BBD62D"/>
<stop offset="0.9829" stop-color="#A3CD39"/>
</linearGradient>
<linearGradient id="paint5_linear_352_1500" x1="2.00213" y1="10.2294" x2="4.42127" y2="3.87399" gradientUnits="userSpaceOnUse">
<stop offset="0.0698" stop-color="#A3CD39"/>
<stop offset="0.2599" stop-color="#81C55F"/>
<stop offset="0.9216" stop-color="#0FA8E0"/>
</linearGradient>
<clipPath id="clip0_352_1500">
<rect width="125" height="20" fill="white"/>
</clipPath>
</defs>
</svg>
