<svg width="155" height="69" viewBox="0 0 155 69" fill="none" xmlns="http://www.w3.org/2000/svg">
<path d="M181.957 0.253906H0V77.2539H181.957V0.253906Z" fill="white" fill-opacity="0.01"/>
<path fill-rule="evenodd" clip-rule="evenodd" d="M104.66 62.1313C105.224 62.1313 105.507 62.2713 105.507 62.9713V66.4713C105.507 67.1712 105.366 67.3113 104.66 67.3113H104.237V62.1313H104.66ZM146.412 65.6313C146.976 65.6313 147.117 65.7713 147.117 66.4713V67.8713C147.117 68.4313 146.976 68.7113 146.412 68.7113H145.847V65.7713H146.412V65.6313ZM100.429 62.9713C100.429 62.2713 100.711 62.1313 101.275 62.1313H101.698V67.3113H101.275C100.711 67.3113 100.429 67.1712 100.429 66.4713V62.9713ZM51.4838 73.6113H154.451V56.6713H51.4838V73.6113ZM62.6269 59.3313H59.9469V63.6713H58.5364V59.3313H55.9975V70.3913H58.5364V65.4912H59.9469V70.3913H62.6269V59.3313ZM84.2078 59.3313H78.0015V70.3913H84.2078V68.2913H80.6815V65.6313H83.9257V63.5313H80.6815V61.2913H84.2078V59.3313ZM107.904 63.1113C107.904 60.8713 106.776 60.3113 104.237 60.3113V59.4713H101.698V60.3113C99.0182 60.3113 97.8898 60.8713 97.8898 63.1113V66.6113C97.8898 68.8513 99.0182 69.4113 101.698 69.4113V70.5313H104.237V69.4113C106.776 69.4113 107.904 68.8513 107.904 66.6113V63.1113ZM127.934 59.3313H121.304V61.4313H123.42V70.3913H125.959V61.4313H127.934V59.3313ZM149.797 66.4713C149.797 64.2313 148.809 63.6713 146.27 63.6713H145.847V59.3313H143.167V70.3913H145.847C148.668 70.3913 149.797 69.9713 149.797 67.5912V66.4713ZM44.5723 48.1313V65.6313C39.9176 70.5313 33.1471 73.7513 25.8124 73.7513C11.5662 73.6113 0 62.2713 0 48.1313C0 34.1313 11.5662 22.6513 25.8124 22.6513V41.8313C22.1451 41.8313 18.3367 43.2313 15.5157 46.0313C14.8104 46.7313 14.2462 47.4313 13.682 48.1313C9.87361 53.7313 10.4378 61.2913 15.5157 66.1913C18.3367 68.9912 22.004 70.3913 25.8124 70.3913C29.4798 70.3913 33.1471 68.9912 35.9682 66.1913C38.7892 63.3913 38.7892 58.9113 35.9682 56.1113C33.1471 53.3113 28.4924 53.3113 25.6714 56.1113V48.1313H44.5723ZM41.3281 13.6913C42.8797 20.4113 42.8797 24.6112 42.1744 29.3713C40.905 37.9113 37.0966 44.4913 35.4039 46.7313C34.2755 45.1913 32.4419 42.2513 31.3135 39.3113C31.3135 39.3113 29.0566 33.8512 28.4924 28.6712C27.9282 23.3512 28.2103 18.0313 29.9029 12.0113C31.4545 6.55125 34.5576 1.79125 35.4039 0.53125C35.8271 1.37125 39.7765 6.83125 41.3281 13.6913ZM35.4039 45.0513C36.2503 43.6513 37.5197 40.4313 37.3787 36.3713C37.2376 32.1712 35.8271 29.0913 35.4039 28.3913C34.9808 29.0913 33.2882 32.5913 33.2882 36.6513C33.4292 40.8513 34.5576 43.5113 35.4039 45.0513ZM40.905 25.1712C40.905 22.6512 40.7639 18.1713 39.4944 13.5513C38.225 8.93125 35.6861 4.59125 35.4039 4.03125C34.9808 4.59125 33.1471 8.09125 31.3135 13.6913C30.8903 15.3713 30.044 19.0113 29.9029 22.5113C29.7619 26.7113 30.3261 31.0513 30.6082 32.1712C30.6082 30.7712 30.6082 26.0113 31.4545 22.2313C32.3008 18.3113 33.9934 13.8313 35.4039 11.5913C36.8145 13.9713 38.7892 19.1513 39.3534 22.2313C40.0586 25.3113 40.3408 29.2313 40.1997 32.1712C40.4818 30.4912 40.905 27.6912 40.905 25.1712ZM147.963 22.5113H154.451V47.9912H149.515V32.0313H149.374L146.694 48.1313H142.744L140.205 32.1712H140.064V48.1313H135.127V22.5113H141.616L144.86 40.4313L147.963 22.5113ZM112.559 36.6513C113.123 36.6513 113.547 36.2313 113.547 35.3913V27.1313C113.547 26.2913 113.123 25.8713 112.559 25.8713H111.29V36.6513H112.559ZM106.353 22.5113H114.111C117.637 22.5113 118.06 25.3113 118.06 27.1313V34.8313C118.06 36.6513 117.496 39.4513 114.111 39.4513H111.29V48.1313H106.353V22.5113ZM91.4014 22.5113H102.827V47.9912H98.1719V25.5913H95.9151V47.9912H91.2604V22.5113H91.4014ZM81.6689 39.1712V43.9313C81.6689 44.6313 82.092 44.7713 82.3741 44.7713C82.7973 44.7713 83.0794 44.3513 83.0794 43.9313V38.0513C83.0794 37.2113 82.9383 36.3713 81.1047 36.3713H79.1299V33.5713H81.2457C82.6562 33.5713 83.2204 33.2913 83.2204 31.6112V26.5712C83.2204 26.1512 82.9383 25.7313 82.5152 25.7313C82.2331 25.7313 81.8099 25.8713 81.8099 26.5712V30.7712H76.8731V27.1313C76.8731 25.3113 77.1552 22.5113 80.5405 22.5113H84.631C88.1572 22.5113 88.2983 25.3113 88.2983 27.1313V31.1913C88.2983 33.9913 86.4646 34.6913 84.913 34.6913V34.9712C88.2983 34.8312 88.2983 37.4912 88.2983 38.4712V43.6513C88.2983 45.4713 88.0162 48.2713 84.631 48.2713H80.3994C77.0142 48.2713 76.7321 45.4713 76.7321 43.6513V39.3113H81.6689V39.1712ZM69.1153 38.4712L68.269 25.7313H67.9869L67.1405 38.4712H69.1153ZM64.1785 22.5113H71.9363L74.4752 47.9912H69.6795L69.2563 41.2713H66.8585L66.4353 47.9912H61.6395L64.1785 22.5113ZM51.4838 22.5113H60.9343V25.7313H56.4206V48.1313H51.4838V22.5113ZM128.498 22.5113C132.024 22.5113 132.165 25.3113 132.165 27.1313V43.5112C132.165 45.3313 131.883 48.1313 128.498 48.1313H124.407C120.881 48.1313 120.74 45.3313 120.74 43.5112V27.1313C120.74 25.3113 120.881 22.5113 124.407 22.5113H128.498ZM126.382 44.9113C126.946 44.9113 127.511 44.4913 127.511 43.9313V26.8513V26.7113V26.5712C127.511 26.0112 126.946 25.7313 126.382 25.7313C125.818 25.7313 125.395 26.1512 125.254 26.5712V26.7113V26.8513V43.9313C125.395 44.4913 125.818 44.9113 126.382 44.9113Z" fill="#1A7FC3"/>
</svg>
