<svg width="179" height="46" viewBox="0 0 179 46" fill="none" xmlns="http://www.w3.org/2000/svg">
<g clip-path="url(#clip0_301_392)">
<path d="M44.7187 27.5H26.8384L44.7187 45.8194H62.599L44.7187 27.5Z" fill="#E31231"/>
<path d="M17.8984 0.0195312H0.0180664L17.8984 18.3389L8.95823 27.4986H26.8386L35.7787 18.3389L17.8984 0.0195312Z" fill="#00519E"/>
<path d="M57.986 7.10938V11.0114H53.3549V23.5968H49.3498V11.0114H44.7188V7.10938H57.986Z" fill="#00519E"/>
<path d="M81.6595 17.4415L87.7031 7.10938H91.8513V23.5968H87.9892V13.2281L81.9456 23.5968H77.7974V7.10938H81.6595V17.4415Z" fill="#00519E"/>
<path d="M100.058 12.9166H100.523L105.19 7.10938H110.34L103.849 14.7669L110.876 23.5968H105.583L100.452 16.6721H100.058V23.5968H96.0532V7.10938H100.058V12.9166Z" fill="#00519E"/>
<path d="M118.975 7.10938C114.148 7.10938 110.983 10.4801 110.983 15.3531C110.983 20.2261 114.219 23.5968 118.975 23.5968C123.732 23.5968 126.914 20.1894 126.914 15.3165C126.914 10.4435 123.803 7.10938 118.975 7.10938ZM118.975 19.7498C116.383 19.7498 114.934 17.9178 114.934 15.3531C114.934 12.7884 116.419 10.9564 118.975 10.9564C121.532 10.9564 122.963 12.7701 122.963 15.3165C122.963 17.8629 121.568 19.7314 118.975 19.7498Z" fill="#00519E"/>
<path d="M68.3745 7.10938H61.5264V23.5968H65.5316V19.1452H68.3209C71.8433 19.1452 74.579 16.8919 74.579 13.1548C74.579 9.45426 71.8791 7.10938 68.3745 7.10938ZM68.4639 15.2249H65.5316V11.0114H68.3924C69.7692 11.0114 70.5738 11.6892 70.5738 13.1365C70.5917 14.5287 69.805 15.2249 68.4639 15.2249Z" fill="#00519E"/>
<path d="M172.617 7.10938H165.769V23.5968H169.774V19.1452H172.564C176.086 19.1452 178.822 16.8919 178.822 13.1548C178.822 9.45426 176.122 7.10938 172.617 7.10938ZM172.707 15.2249H169.774V11.0114H172.635C174.012 11.0114 174.816 11.6892 174.816 13.1365C174.816 14.5287 174.03 15.2249 172.707 15.2249Z" fill="#00519E"/>
<path d="M154.754 7.10938C149.927 7.10938 146.762 10.4801 146.762 15.3531C146.762 20.2261 149.998 23.5968 154.754 23.5968C159.51 23.5968 162.693 20.1894 162.693 15.3165C162.693 10.4435 159.582 7.10938 154.754 7.10938ZM154.754 19.7498C152.162 19.7498 150.713 17.9178 150.713 15.3531C150.713 12.7884 152.197 10.9564 154.754 10.9564C157.311 10.9564 158.742 12.7701 158.742 15.3165C158.742 17.8629 157.365 19.7314 154.754 19.7498Z" fill="#00519E"/>
<path d="M135.676 11.0102C135.587 12.146 135.497 13.3001 135.372 14.4359C135.247 15.645 135.086 16.8174 134.871 17.9716C134.246 21.2874 132.529 23.4124 129.311 23.5773C128.989 23.5956 128.667 23.5956 128.327 23.5773V19.6203C130.115 19.6753 130.616 18.9791 130.956 17.2571C131.17 16.1396 131.367 14.6374 131.51 13.0803C131.707 11.0835 131.867 9.08666 131.975 7.08984H143.955V23.5407H139.949V11.0102H135.676Z" fill="#00519E"/>
</g>
<defs>
<clipPath id="clip0_301_392">
<rect width="179" height="46" fill="white"/>
</clipPath>
</defs>
</svg>
