<svg width="111" height="19" viewBox="0 0 111 19" fill="none" xmlns="http://www.w3.org/2000/svg">
<path d="M49.2919 5.57977L51.5792 3.81641H43.9214V14.3794H51.5792V12.616H46.1094V9.91905H50.7836V8.15568H46.1094V5.57977H49.2919Z" fill="#21A038"/>
<path d="M38.1369 7.93093H35.4849V5.57977H39.7282L42.0156 3.81641H33.2969V14.3794H37.8551C40.4078 14.3794 41.883 13.1692 41.883 11.0601C41.883 9.03736 40.5569 7.93093 38.1369 7.93093ZM37.7722 12.616H35.4849V9.69431H37.7722C39.1646 9.69431 39.8111 10.1784 39.8111 11.1638C39.8111 12.1492 39.1149 12.616 37.7722 12.616Z" fill="#21A038"/>
<path d="M57.779 3.81641H53.6187V14.3794H55.8065V11.3885H57.7956C60.4477 11.3885 62.1052 9.93634 62.1052 7.60247C62.1052 5.26859 60.4477 3.81641 57.779 3.81641ZM57.7294 9.62515H55.79V5.57977H57.7294C59.1383 5.57977 59.9007 6.30586 59.9007 7.60247C59.9007 8.89906 59.1383 9.62515 57.7294 9.62515Z" fill="#21A038"/>
<path d="M29.5508 12.0989C28.9707 12.4274 28.3243 12.6003 27.6612 12.6003C25.6887 12.6003 24.2632 11.1308 24.2632 9.10811C24.2632 7.08541 25.6887 5.61594 27.6612 5.61594C28.3739 5.59865 29.0701 5.84068 29.6503 6.27288L31.225 5.06272L31.1255 4.95899C30.2139 4.11188 28.9872 3.67969 27.5949 3.67969C26.0865 3.67969 24.7107 4.21561 23.7163 5.18374C22.7217 6.18645 22.1581 7.58677 22.1913 9.03895C22.1747 10.5084 22.7217 11.9261 23.7163 12.9633C24.7605 13.9833 26.1528 14.5538 27.5783 14.5192C29.153 14.5192 30.5288 13.9487 31.457 12.9114L30.0481 11.8223L29.5508 12.0989Z" fill="#21A038"/>
<path d="M88.4106 3.8337V14.3966H90.5986V10.0746H95.2562V14.3966H97.4442V3.8337H95.2562V8.17297H90.5986V3.8337H88.4106ZM84.6479 14.3966H86.9519L82.6755 3.8337H80.4543L76.095 14.3966H78.2996L79.1781 12.2702H83.8192L84.6479 14.3966ZM79.8411 10.5068L81.5318 6.27129L83.123 10.5068H79.8411ZM102.351 10.1265H103.71L107.058 14.3794H109.876L105.4 8.91635L109.312 3.81641H106.81L103.561 8.34585H102.351V3.81641H100.163V14.3794H102.351V10.1265ZM68.8682 7.94822V5.59706H74.5867V3.8337H66.6802V14.3966H71.2384C73.7911 14.3966 75.2663 13.1865 75.2663 11.0773C75.2663 9.05465 73.9402 7.94822 71.5202 7.94822H68.8682ZM68.8682 12.6333V9.71159H71.1555C72.5478 9.71159 73.1943 10.1957 73.1943 11.1811C73.1943 12.1665 72.5147 12.6505 71.1555 12.6505H68.8682V12.6333Z" fill="#21A038"/>
<path d="M15.3453 3.75C15.7431 4.28593 16.0746 4.87373 16.3564 5.49609L8.69856 11.3912L5.48291 9.28215V6.75811L8.68198 8.84994L15.3453 3.75Z" fill="#21A038"/>
<path d="M2.21814 9.10965C2.21814 8.98863 2.21814 8.8849 2.23472 8.76388L0.295384 8.66016C0.295384 8.79846 0.278809 8.95405 0.278809 9.09236C0.278809 11.5127 1.22361 13.7082 2.74855 15.2987L4.12432 13.8638C2.94746 12.6536 2.21814 10.9767 2.21814 9.10965Z" fill="url(#paint0_linear_301_443)"/>
<path d="M8.68207 2.36644C8.7981 2.36644 8.89756 2.36644 9.01358 2.38373L9.11303 0.361038C8.98043 0.361038 8.83125 0.34375 8.69865 0.34375C6.37808 0.34375 4.27299 1.32916 2.74805 2.91965L4.12381 4.35455C5.28409 3.12711 6.9085 2.36644 8.68207 2.36644Z" fill="url(#paint1_linear_301_443)"/>
<path d="M8.68243 15.8514C8.5664 15.8514 8.46694 15.8514 8.35091 15.8341L8.25146 17.8568C8.38407 17.8568 8.53325 17.874 8.66585 17.874C10.9864 17.874 13.0915 16.8887 14.6164 15.2982L13.2406 13.8633C12.0804 15.108 10.4726 15.8514 8.68243 15.8514Z" fill="url(#paint2_linear_301_443)"/>
<path d="M12.3292 3.54369L13.9702 2.28166C12.5281 1.07151 10.6883 0.328125 8.68262 0.328125V2.35081C10.0418 2.3681 11.3016 2.8003 12.3292 3.54369Z" fill="url(#paint3_linear_301_443)"/>
<path d="M17.103 9.10836C17.103 8.57243 17.0532 8.0538 16.9703 7.53516L15.1636 8.93548C15.1636 8.98735 15.1636 9.0565 15.1636 9.10836C15.1636 11.0965 14.3348 12.8772 13.0254 14.1046L14.3348 15.6086C16.0255 14.0181 17.103 11.6843 17.103 9.10836Z" fill="#21A038"/>
<path d="M8.68209 15.8513C6.77591 15.8513 5.06864 14.9869 3.89178 13.6211L2.44971 14.9869C3.99123 16.7675 6.21234 17.8739 8.68209 17.8739V15.8513Z" fill="url(#paint4_linear_301_443)"/>
<path d="M4.35638 4.11344L3.04692 2.60938C1.33964 4.21715 0.278809 6.53375 0.278809 9.10965H2.21814C2.21814 7.13882 3.04692 5.34088 4.35638 4.11344Z" fill="url(#paint5_linear_301_443)"/>
<defs>
<linearGradient id="paint0_linear_301_443" x1="2.54161" y1="15.0526" x2="0.436053" y2="9.12739" gradientUnits="userSpaceOnUse">
<stop offset="0.1444" stop-color="#F2E913"/>
<stop offset="0.3037" stop-color="#E7E518"/>
<stop offset="0.5823" stop-color="#CADB26"/>
<stop offset="0.891" stop-color="#A3CD39"/>
</linearGradient>
<linearGradient id="paint1_linear_301_443" x1="3.30085" y1="2.69141" x2="8.3713" y2="0.810274" gradientUnits="userSpaceOnUse">
<stop offset="0.0592" stop-color="#0FA8E0"/>
<stop offset="0.5385" stop-color="#0099F9"/>
<stop offset="0.9234" stop-color="#0291EB"/>
</linearGradient>
<linearGradient id="paint2_linear_301_443" x1="8.13759" y1="16.1539" x2="14.1504" y2="14.8309" gradientUnits="userSpaceOnUse">
<stop offset="0.1226" stop-color="#A3CD39"/>
<stop offset="0.2846" stop-color="#86C339"/>
<stop offset="0.8693" stop-color="#21A038"/>
</linearGradient>
<linearGradient id="paint3_linear_301_443" x1="8.28416" y1="1.61643" x2="13.2963" y2="3.12201" gradientUnits="userSpaceOnUse">
<stop offset="0.0566" stop-color="#0291EB"/>
<stop offset="0.79" stop-color="#0C8ACB"/>
</linearGradient>
<linearGradient id="paint4_linear_301_443" x1="2.94281" y1="15.3073" x2="8.33947" y2="17.2704" gradientUnits="userSpaceOnUse">
<stop offset="0.1324" stop-color="#F2E913"/>
<stop offset="0.2977" stop-color="#EBE716"/>
<stop offset="0.5306" stop-color="#D9E01F"/>
<stop offset="0.8023" stop-color="#BBD62D"/>
<stop offset="0.9829" stop-color="#A3CD39"/>
</linearGradient>
<linearGradient id="paint5_linear_301_443" x1="1.76477" y1="9.35396" x2="4.03759" y2="3.59794" gradientUnits="userSpaceOnUse">
<stop offset="0.0698" stop-color="#A3CD39"/>
<stop offset="0.2599" stop-color="#81C55F"/>
<stop offset="0.9216" stop-color="#0FA8E0"/>
</linearGradient>
</defs>
</svg>
