<svg width="167" height="22" viewBox="0 0 167 22" fill="none" xmlns="http://www.w3.org/2000/svg">
<g clip-path="url(#clip0_301_407)">
<path d="M47.686 0.582031H55.1155L61.1049 16.2111L67.0453 0.582031H74.2129V21.4207H69.4509V5.48526L63.2487 21.4207H58.3557L52.1536 5.58203V21.4207H47.7024V0.582031H47.686Z" fill="#007BFB"/>
<path d="M105.305 0.582031H121.686V21.4207H116.613V4.96913H109.937C109.887 7.88848 109.806 11.824 109.724 14.0175C109.544 19.4853 107.924 21.4207 103.178 21.4207H100.903V17.0336H102.163C104.307 17.0336 104.994 16.082 105.142 13.1143C105.256 9.92074 105.305 3.59816 105.305 0.582031Z" fill="#007BFB"/>
<path d="M147.591 0.582031H166.852V4.96913H159.734V21.4207H154.71V4.96913H147.591V0.582031Z" fill="#007BFB"/>
<path d="M34.5614 0.144531H32.745C28.392 0.144531 25.0864 2.75743 24.3336 6.64453L28.9648 7.37034C29.603 5.5155 31.0594 4.25743 32.8922 4.17679C33.2359 4.16066 33.5959 4.16066 33.9396 4.17679C36.6725 4.27356 37.9162 5.56389 37.9162 8.75743C32.7286 8.75743 29.1939 8.5155 26.5755 10.209C24.4482 11.5961 23.5317 13.1284 23.5317 15.5478C23.5317 19.0639 26.2973 21.8381 30.7649 21.8381H31.3867C34.5451 21.8381 37.0979 20.6284 38.1289 19.1607V21.4026H42.7928V8.85421C42.8092 4.0155 40.1745 0.144531 34.5614 0.144531ZM31.714 17.7736C29.7339 17.7252 28.5884 16.58 28.5884 15.1607C28.5884 13.9832 29.1284 13.3865 29.8484 12.9832C30.6012 12.5478 31.5831 12.4026 33.0886 12.3542C34.5451 12.3058 35.7233 12.2413 37.998 12.2413C37.998 15.7897 35.7233 17.58 32.9086 17.7736C32.5159 17.7897 32.1231 17.7897 31.714 17.7736Z" fill="#007BFB"/>
<path d="M146.413 12.403V10.4514C146.413 3.72556 142.125 0.257812 136.594 0.257812H135.514C129.558 0.257812 125.761 4.25781 125.565 9.90298C125.532 10.7256 125.532 11.0804 125.565 12.2094C125.696 17.8223 129.705 21.6127 135.04 21.7578C136.022 21.7901 135.891 21.7901 136.807 21.7578C141.455 21.6288 144.973 18.9836 146.02 15.532L141.52 14.7578C140.424 16.9191 138.329 17.7578 136.643 17.8385C136.267 17.8546 135.891 17.8546 135.498 17.8385C132.863 17.7256 130.523 15.7094 130.523 12.7578V12.4352L146.413 12.403ZM135.432 4.17717C135.842 4.14491 136.267 4.14491 136.692 4.17717C138.902 4.29007 141.225 5.70943 141.455 8.51588H130.572C130.818 5.99975 132.863 4.32233 135.432 4.17717Z" fill="#007BFB"/>
<path d="M99.5126 9.16104C99.398 4.11265 95.2742 0.257812 89.8248 0.257812H87.8447C82.3953 0.257812 78.2714 4.12878 78.1569 9.1933C78.1241 10.5965 78.1241 11.4191 78.1569 12.8223C78.2714 17.8868 82.3953 21.7578 87.8447 21.7578H89.8248C95.2742 21.7578 99.398 17.903 99.5126 12.8223C99.5289 11.403 99.5289 10.5643 99.5126 9.16104ZM94.5214 12.5481C94.4559 15.4997 92.2958 17.4997 89.3666 17.6449C89.0066 17.6772 88.6465 17.6772 88.2865 17.6449C85.3409 17.4997 83.1971 15.4997 83.1317 12.5481C83.099 11.3223 83.099 10.6288 83.1317 9.40297C83.1971 6.48362 85.3409 4.48362 88.2865 4.33846C88.6465 4.3062 89.0066 4.3062 89.3666 4.33846C92.2958 4.48362 94.4723 6.48362 94.5214 9.43523C94.5541 10.661 94.5541 11.3385 94.5214 12.5481Z" fill="#007BFB"/>
<path d="M15.6772 14.0643C15.0881 15.9997 13.5171 17.3223 11.3897 17.6127C10.8169 17.6933 10.2442 17.6933 9.6878 17.6127C7.05311 17.2578 5.20392 15.3062 5.13846 12.5643C5.10573 11.3385 5.10573 10.6449 5.13846 9.4191C5.20392 6.66104 7.15129 4.64491 9.83508 4.35459C10.2769 4.3062 10.7024 4.3062 11.1442 4.35459C13.4025 4.59652 15.0881 5.93523 15.7099 7.95136L20.6193 7.01588C19.5556 3.06426 15.9227 0.257812 11.2752 0.257812H9.86781C4.40205 0.257812 0.278192 4.11265 0.163641 9.17717C0.147276 10.5804 0.147276 11.403 0.163641 12.8062C0.278192 17.8707 4.40205 21.7417 9.85144 21.7417H11.2588C16.0045 21.7417 19.6702 18.8223 20.6357 14.7256L15.6772 14.0643Z" fill="#007BFB"/>
</g>
<defs>
<clipPath id="clip0_301_407">
<rect width="167" height="22" fill="white"/>
</clipPath>
</defs>
</svg>
