<svg width="128" height="15" viewBox="0 0 128 15" fill="none" xmlns="http://www.w3.org/2000/svg">
<g clip-path="url(#clip0_301_418)">
<path fill-rule="evenodd" clip-rule="evenodd" d="M126.202 0H82.818C81.8115 0 80.9956 0.820385 80.9956 1.83231V12.9802C80.9956 13.9921 81.8115 14.8125 82.818 14.8125H126.202C127.209 14.8125 128.025 13.9921 128.025 12.9802V1.83231C128.025 0.820385 127.209 0 126.202 0Z" fill="#007BFB"/>
<path fill-rule="evenodd" clip-rule="evenodd" d="M30.9601 2.92578L28.2099 10.3052L25.4396 2.92578H22.002V12.7652H24.0648V5.28367L26.9355 12.7652H29.2003L32.0716 5.24328V12.7652H34.2755V2.92578H30.9601Z" fill="#007BFB"/>
<path fill-rule="evenodd" clip-rule="evenodd" d="M48.6742 2.92578H56.2569V12.7652H53.9107V4.99924H50.8167C50.7966 6.38212 50.7565 8.23174 50.7157 9.26904C50.6354 11.8508 49.8872 12.7652 47.6832 12.7652H46.6309V10.6917H47.2179C48.2088 10.6917 48.5319 10.2446 48.5933 8.84212C48.6541 7.33751 48.6742 4.34847 48.6742 2.92578Z" fill="#007BFB"/>
<path fill-rule="evenodd" clip-rule="evenodd" d="M68.251 2.92578H77.1678V4.99924H73.8719V12.7652H71.5463V4.99924H68.251V2.92578Z" fill="#007BFB"/>
<path fill-rule="evenodd" clip-rule="evenodd" d="M14.6136 11.0482C13.6961 11.0222 13.1641 10.4881 13.1641 9.81134C13.1641 9.2523 13.4149 8.97768 13.7466 8.78384C14.0943 8.57961 14.5459 8.5098 15.2476 8.48442C15.9224 8.46018 16.4715 8.43018 17.5176 8.43018C17.5176 10.1096 16.4669 10.9536 15.1621 11.0431C14.9561 11.0575 14.8293 11.0551 14.6136 11.0482ZM15.9322 2.72266H15.0927C13.0764 2.72266 11.5478 3.95612 11.1972 5.79134L13.3403 6.13743C13.6329 5.26285 14.3072 4.66631 15.1592 4.62708C15.4341 4.61439 15.3675 4.61727 15.643 4.62708C16.9099 4.67266 17.4814 5.28246 17.4814 6.79057C15.0824 6.79057 13.4413 6.67692 12.2357 7.47595C11.2505 8.12961 10.8276 8.85359 10.8276 9.99878C10.8276 11.6551 12.1101 12.9676 14.1798 12.9676H14.4644C15.9264 12.9676 17.1067 12.396 17.5876 11.7053V12.7651L19.7468 12.7663V6.83499C19.7468 4.54631 18.528 2.72266 15.9322 2.72266Z" fill="#007BFB"/>
<path fill-rule="evenodd" clip-rule="evenodd" d="M62.6205 4.62767C62.8661 4.6144 62.9539 4.6144 63.1995 4.62767C64.222 4.67901 65.2979 5.34651 65.4011 6.67401H60.3666C60.4837 5.48901 61.4299 4.69286 62.6205 4.62767ZM67.7067 8.51208V7.59132C67.7067 4.41536 65.7236 2.77344 63.161 2.77344H62.6595C59.903 2.77344 58.1437 4.66344 58.0525 7.33055C58.0404 7.72112 58.0404 7.88382 58.0525 8.41689C58.1179 11.0713 59.9678 12.858 62.4403 12.9232C62.8936 12.9359 62.8345 12.9348 63.2626 12.9232C65.4149 12.8621 67.0439 11.6136 67.5248 9.98093L65.4425 9.61516C64.9341 10.638 63.9626 11.0304 63.1869 11.0696C62.9407 11.0829 62.9057 11.08 62.6595 11.0696C61.4437 11.0194 60.354 10.06 60.354 8.66843V8.51208H67.7067Z" fill="#007BFB"/>
<path fill-rule="evenodd" clip-rule="evenodd" d="M43.6858 8.58362C43.6588 9.97401 42.6524 10.9184 41.2988 10.9871C41.0394 11.0004 41.0555 11.0004 40.7961 10.9871C39.4288 10.9184 38.4361 9.97401 38.4085 8.58362C38.3953 8.00555 38.3953 7.67728 38.4085 7.09862C38.4361 5.72267 39.4288 4.77825 40.7961 4.70959C41.0555 4.69575 41.0394 4.69575 41.2988 4.70959C42.6524 4.77825 43.6588 5.72267 43.6858 7.11362C43.699 7.6917 43.699 8.00555 43.6858 8.58362ZM45.9919 6.97862C45.9397 4.59709 44.0295 2.77344 41.5053 2.77344H40.5901C38.0654 2.77344 36.1552 4.59709 36.1036 6.99132C36.0898 7.65478 36.0898 8.04247 36.1036 8.70535C36.1552 11.1002 38.0654 12.9232 40.5901 12.9232H41.5053C44.0295 12.9232 45.9397 11.1002 45.9919 8.70535C46.0045 8.04247 46.0045 7.64209 45.9919 6.97862Z" fill="#007BFB"/>
<path fill-rule="evenodd" clip-rule="evenodd" d="M7.19258 9.29497C6.92002 10.2071 6.19015 10.833 5.20953 10.9704C4.92722 11.009 4.64663 10.9992 4.41998 10.9675C3.20065 10.7955 2.34168 9.87651 2.31586 8.58362C2.30208 8.00555 2.30208 7.67728 2.31586 7.09862C2.34225 5.79709 3.24312 4.84517 4.48482 4.7119C4.55654 4.70324 4.8268 4.67959 5.0896 4.70786C6.13449 4.82036 6.91945 5.45151 7.20233 6.40862L9.47458 5.96728C8.98685 4.10036 7.30275 2.77344 5.14985 2.77344H4.49744C1.97272 2.77344 0.0619704 4.59709 0.0103284 6.99132C-0.0034428 7.65478 -0.0034428 8.04189 0.0103284 8.70535C0.0619704 11.1002 1.97272 12.9232 4.49744 12.9232H5.14985C7.34464 12.9232 9.0448 11.545 9.49352 9.6117L7.19258 9.29497Z" fill="#007BFB"/>
<path fill-rule="evenodd" clip-rule="evenodd" d="M85.9234 3.625H93.1498L91.4594 11.7654H89.4121L90.6859 5.60038H87.5662L86.2803 11.7654H84.2324L85.9234 3.625Z" fill="#F4F6FB"/>
<path fill-rule="evenodd" clip-rule="evenodd" d="M96.4968 3.625H102.677L100.986 11.7654H98.9263L100.212 5.58827H98.0805C97.855 6.58174 97.5928 7.81463 97.3191 9.0002C96.8067 11.1666 95.9253 11.7654 94.2114 11.7654H93.2944L93.711 9.73001H94.1161C94.8064 9.73001 95.1994 9.43117 95.3899 8.66443C95.6998 7.37155 96.1399 5.39673 96.4968 3.625Z" fill="#F4F6FB"/>
<path fill-rule="evenodd" clip-rule="evenodd" d="M113.559 7.0595C113.559 6.04181 112.988 5.37141 111.952 5.37141C110.44 5.37141 109.511 6.86796 109.511 8.3645C109.511 9.35796 110.142 10.0162 111.106 10.0162C112.666 10.0162 113.559 8.59181 113.559 7.0595ZM107.404 8.67546H106.177L105.534 11.7643H103.486L105.177 3.62391H107.225L106.583 6.70065H107.701C108.261 4.95256 109.666 3.50391 112.119 3.50391C114.345 3.50391 115.667 4.79679 115.667 6.82008C115.667 9.28642 114.285 11.8837 110.939 11.8837C108.809 11.8837 107.44 10.6624 107.404 8.67546Z" fill="#F4F6FB"/>
<path fill-rule="evenodd" clip-rule="evenodd" d="M122.829 8.73546L124.83 9.10642C124.211 10.8182 122.948 11.8837 120.77 11.8837C118.734 11.8837 117.353 10.6151 117.353 8.59181C117.353 6.10181 118.852 3.50391 121.936 3.50391C124.02 3.50391 125.175 4.55737 125.27 6.28123L123.175 6.62854C123.091 5.92239 122.662 5.37141 121.758 5.37141C120.341 5.37141 119.448 6.83219 119.448 8.3645C119.448 9.41796 120.02 10.0162 120.924 10.0162C121.806 10.0162 122.484 9.50162 122.829 8.73546Z" fill="#F4F6FB"/>
</g>
<defs>
<clipPath id="clip0_301_418">
<rect width="128" height="15" fill="white"/>
</clipPath>
</defs>
</svg>
