<svg width="28" height="22" viewBox="0 0 28 22" fill="none" xmlns="http://www.w3.org/2000/svg">
<path fill-rule="evenodd" clip-rule="evenodd" d="M23.0984 21.0035L27.2663 0.844346C27.2663 -0.497771 25.3429 0.313066 25.3429 0.313066L1.93899 9.1204C1.93899 9.1204 0.831518 9.48374 0.918983 10.155C1.00631 10.8259 1.90983 11.1335 1.90983 11.1335L7.79719 13.0349L21.9326 4.42319C21.9326 4.42319 22.7485 3.94785 22.7195 4.42319C22.7195 4.42319 22.8653 4.50697 22.4281 4.8984C21.9911 5.28983 11.3237 14.4886 11.3237 14.4886L20.9126 21.7302C22.5156 22.4015 23.0984 21.0035 23.0984 21.0035ZM11.178 20.6963L14.9824 17.3689L11.2837 14.5963L10.5553 20.7771C10.8806 20.9126 11.178 20.6963 11.178 20.6963Z" fill="white" fill-opacity="0.9"/>
</svg>
