<svg width="23" height="23" viewBox="0 0 23 23" fill="none" xmlns="http://www.w3.org/2000/svg">
<g clip-path="url(#clip0_444_2120)">
<path fill-rule="evenodd" clip-rule="evenodd" d="M15.2618 13.1902C15.5735 13.3054 17.2474 14.1212 17.5856 14.2941L17.5901 14.2897C17.6552 14.3225 17.7161 14.3522 17.7726 14.3796C18.0137 14.497 18.1752 14.5754 18.24 14.6975C18.3327 15.242 18.2629 15.8013 18.0398 16.3068C17.7549 17.1004 16.3969 17.823 15.7425 17.916C15.0283 18.0389 14.295 17.9933 13.6013 17.7829C12.944 17.5767 12.2977 17.3369 11.6649 17.0648C8.43812 15.6878 6.2962 12.5976 5.91497 12.0476C5.89123 12.0134 5.8743 11.989 5.86438 11.9754C5.86 11.9695 5.8549 11.9625 5.84912 11.9547C5.6327 11.6613 4.47547 10.0924 4.47547 8.46871C4.46625 7.9406 4.56755 7.41637 4.77298 6.9294C4.97838 6.44243 5.28335 6.0034 5.66851 5.64027C5.77873 5.50984 5.91456 5.40321 6.06767 5.32697C6.22079 5.25075 6.38793 5.20648 6.55886 5.19695C6.63573 5.19695 6.71106 5.19541 6.7852 5.19393C6.93006 5.19099 7.07041 5.18815 7.20878 5.19695C7.23753 5.19877 7.26771 5.19817 7.29909 5.19755C7.49613 5.19364 7.74083 5.18877 7.97894 5.77771C8.25493 6.46042 8.93603 8.12736 9.02506 8.29581C9.07794 8.38513 9.10804 8.48598 9.11271 8.58954C9.11737 8.6931 9.09643 8.79624 9.05177 8.88988C8.96616 9.09382 8.85228 9.28485 8.71344 9.45734C8.65165 9.52837 8.58868 9.60501 8.52624 9.68107C8.41325 9.81867 8.30186 9.95433 8.2015 10.0514C8.14398 10.0857 8.09411 10.1313 8.05502 10.1856C8.01591 10.2398 7.98844 10.3015 7.97425 10.3667C7.96006 10.432 7.95946 10.4994 7.97253 10.5649C7.98558 10.6304 8.01201 10.6925 8.05016 10.7474C8.56387 11.6172 9.2028 12.4073 9.94655 13.0926C10.7528 13.8077 11.6776 14.3777 12.6799 14.7772C13.0182 14.9501 13.223 14.9235 13.4143 14.6931C13.4549 14.6444 13.5164 14.572 13.5901 14.485C13.8653 14.1606 14.3137 13.6322 14.4963 13.3631C14.7278 13.0217 14.9501 13.0749 15.2618 13.1902ZM5.59729 21.1658C7.34914 22.1964 9.3473 22.7386 11.382 22.7349C13.8882 22.7401 16.3256 21.9162 18.3106 20.3927C20.2964 18.8685 21.7174 16.7304 22.3504 14.3147C22.9837 11.8989 22.7928 9.34214 21.8082 7.04601C20.8237 4.7499 19.1011 2.8446 16.9109 1.6294C14.721 0.414227 12.1875 -0.0419632 9.70878 0.33254C7.23008 0.707018 4.94656 1.89094 3.21692 3.69833C1.48728 5.5057 0.409573 7.8341 0.153107 10.3177C-0.103358 12.8013 0.475947 15.2995 1.80002 17.4194L2.06713 17.8629L0.92305 22.0212L5.18328 20.9174L5.59729 21.1658ZM11.382 22.7349C11.3828 22.7349 11.3836 22.7349 11.3844 22.7349H11.38C11.3807 22.7349 11.3813 22.7349 11.382 22.7349Z" fill="white" fill-opacity="0.9"/>
</g>
<defs>
<clipPath id="clip0_444_2120">
<rect width="22.915" height="22.915" fill="white"/>
</clipPath>
</defs>
</svg>
