<svg width="31" height="19" viewBox="0 0 31 19" fill="none" xmlns="http://www.w3.org/2000/svg">
<g clip-path="url(#clip0_444_2114)">
<path fill-rule="evenodd" clip-rule="evenodd" d="M24.8941 0.557108H28.0972C29.0626 0.557108 29.2644 1.06993 29.0626 1.763H29.045C28.6324 3.6708 24.7362 9.3045 24.7362 9.3045C24.3939 9.86249 24.2622 10.1323 24.7362 10.7624C24.9053 11.0025 25.2632 11.3637 25.6719 11.7762C26.0901 12.1983 26.5615 12.6741 26.9388 13.1291C28.3167 14.713 29.3522 16.054 29.6417 16.9719C29.905 17.8989 29.4487 18.3669 28.5359 18.3669H25.333C24.4758 18.3669 24.0433 17.8736 23.11 16.8092C22.715 16.3588 22.2303 15.806 21.5858 15.1451C19.6902 13.2644 18.8742 13.0213 18.4002 13.0213C17.7597 13.0213 17.5666 13.2102 17.5666 14.1462V17.089C17.5666 17.8989 17.3208 18.3669 15.2849 18.3669C11.8976 18.3669 8.16796 16.2611 5.52648 12.3643C1.55991 6.66769 0.471766 2.35709 0.471766 1.48409C0.471766 0.998058 0.655976 0.557108 1.56859 0.557108H4.77171C5.58797 0.557108 5.89514 0.926022 6.20224 1.83504C7.7731 6.51472 10.4057 10.6005 11.4939 10.6005C11.9063 10.6005 12.0906 10.4114 12.0906 9.3495V4.51685C12.0147 3.14392 11.5471 2.55024 11.2007 2.11046C10.9862 1.8382 10.8181 1.62484 10.8181 1.32205C10.8181 0.953056 11.1253 0.566174 11.6341 0.566174H16.6627C17.3384 0.566174 17.5666 0.935005 17.5666 1.77199V8.26971C17.5666 8.96262 17.8738 9.20551 18.0756 9.20551C18.4791 9.20551 18.8215 8.96262 19.5674 8.19759C21.8754 5.5518 23.4988 1.48409 23.4988 1.48409C23.7095 0.998058 24.0781 0.557108 24.8941 0.557108Z" fill="white" fill-opacity="0.9"/>
</g>
<defs>
<clipPath id="clip0_444_2114">
<rect width="30.0123" height="18.3002" fill="white" transform="translate(0.265625 0.291016)"/>
</clipPath>
</defs>
</svg>
