<svg width="28" height="22" viewBox="0 0 28 22" fill="none" xmlns="http://www.w3.org/2000/svg">
<path fill-rule="evenodd" clip-rule="evenodd" d="M23.0979 21.0035L27.2658 0.844346C27.2658 -0.497771 25.3424 0.313066 25.3424 0.313066L1.9385 9.1204C1.9385 9.1204 0.83103 9.48374 0.918495 10.155C1.00582 10.8259 1.90935 11.1335 1.90935 11.1335L7.7967 13.0349L21.9321 4.42319C21.9321 4.42319 22.748 3.94785 22.719 4.42319C22.719 4.42319 22.8648 4.50697 22.4276 4.8984C21.9906 5.28983 11.3232 14.4886 11.3232 14.4886L20.9121 21.7302C22.5151 22.4015 23.0979 21.0035 23.0979 21.0035ZM11.1776 20.6963L14.9819 17.3689L11.2832 14.5963L10.5548 20.7771C10.8801 20.9126 11.1776 20.6963 11.1776 20.6963Z" fill="#00519E" fill-opacity="0.9"/>
</svg>
