<svg width="31" height="19" viewBox="0 0 31 19" fill="none" xmlns="http://www.w3.org/2000/svg">
<g clip-path="url(#clip0_301_112)">
<path fill-rule="evenodd" clip-rule="evenodd" d="M24.8956 0.557108H28.0986C29.0641 0.557108 29.2659 1.06993 29.0641 1.763H29.0464C28.6339 3.6708 24.7377 9.3045 24.7377 9.3045C24.3954 9.86249 24.2637 10.1323 24.7377 10.7624C24.9068 11.0025 25.2647 11.3637 25.6734 11.7762C26.0915 12.1983 26.563 12.6741 26.9402 13.1291C28.3181 14.713 29.3536 16.054 29.6432 16.9719C29.9065 17.8989 29.4502 18.3669 28.5374 18.3669H25.3344C24.4773 18.3669 24.0448 17.8736 23.1115 16.8092C22.7165 16.3588 22.2318 15.806 21.5873 15.1451C19.6917 13.2644 18.8756 13.0213 18.4017 13.0213C17.7612 13.0213 17.5681 13.2102 17.5681 14.1462V17.089C17.5681 17.8989 17.3223 18.3669 15.2864 18.3669C11.8991 18.3669 8.16943 16.2611 5.52795 12.3643C1.56138 6.66769 0.47323 2.35709 0.47323 1.48409C0.47323 0.998058 0.657441 0.557108 1.57006 0.557108H4.77318C5.58943 0.557108 5.89661 0.926022 6.20371 1.83504C7.77457 6.51472 10.4072 10.6005 11.4954 10.6005C11.9077 10.6005 12.0921 10.4114 12.0921 9.3495V4.51685C12.0162 3.14392 11.5486 2.55024 11.2021 2.11046C10.9877 1.8382 10.8196 1.62484 10.8196 1.32205C10.8196 0.953056 11.1268 0.566174 11.6356 0.566174H16.6641C17.3399 0.566174 17.5681 0.935005 17.5681 1.77199V8.26971C17.5681 8.96262 17.8752 9.20551 18.077 9.20551C18.4806 9.20551 18.823 8.96262 19.5689 8.19759C21.8768 5.5518 23.5003 1.48409 23.5003 1.48409C23.7109 0.998058 24.0796 0.557108 24.8956 0.557108Z" fill="#00519E" fill-opacity="0.9"/>
</g>
<defs>
<clipPath id="clip0_301_112">
<rect width="30.0123" height="18.3002" fill="white" transform="translate(0.265625 0.291016)"/>
</clipPath>
</defs>
</svg>
