<svg width="23" height="23" viewBox="0 0 23 23" fill="none" xmlns="http://www.w3.org/2000/svg">
<g clip-path="url(#clip0_301_118)">
<path fill-rule="evenodd" clip-rule="evenodd" d="M15.2628 13.1902C15.5745 13.3054 17.2483 14.1212 17.5866 14.2941L17.591 14.2897C17.6561 14.3225 17.7171 14.3522 17.7736 14.3796C18.0147 14.497 18.1761 14.5754 18.241 14.6975C18.3337 15.242 18.2639 15.8013 18.0407 16.3068C17.7559 17.1004 16.3979 17.823 15.7435 17.916C15.0292 18.0389 14.296 17.9933 13.6023 17.7829C12.945 17.5767 12.2987 17.3369 11.6659 17.0648C8.4391 15.6878 6.29717 12.5976 5.91595 12.0476C5.8922 12.0134 5.87528 11.989 5.86536 11.9754C5.86098 11.9695 5.85588 11.9625 5.8501 11.9547C5.63368 11.6613 4.47645 10.0924 4.47645 8.46871C4.46723 7.9406 4.56852 7.41637 4.77395 6.9294C4.97935 6.44243 5.28433 6.0034 5.66948 5.64027C5.77971 5.50984 5.91553 5.40321 6.06865 5.32697C6.22176 5.25075 6.38891 5.20648 6.55984 5.19695C6.63671 5.19695 6.71204 5.19541 6.78617 5.19393C6.93103 5.19099 7.07139 5.18815 7.20976 5.19695C7.23851 5.19877 7.26869 5.19817 7.30007 5.19755C7.49711 5.19364 7.74181 5.18877 7.97991 5.77771C8.25591 6.46042 8.93701 8.12736 9.02603 8.29581C9.07892 8.38513 9.10902 8.48598 9.11368 8.58954C9.11834 8.6931 9.09741 8.79624 9.05275 8.88988C8.96713 9.09382 8.85326 9.28485 8.71442 9.45734C8.65262 9.52837 8.58966 9.60501 8.52722 9.68107C8.41423 9.81867 8.30283 9.95433 8.20247 10.0514C8.14495 10.0857 8.09509 10.1313 8.056 10.1856C8.01689 10.2398 7.98942 10.3015 7.97523 10.3667C7.96104 10.432 7.96044 10.4994 7.97351 10.5649C7.98655 10.6304 8.01298 10.6925 8.05113 10.7474C8.56484 11.6172 9.20378 12.4073 9.94753 13.0926C10.7538 13.8077 11.6786 14.3777 12.6808 14.7772C13.0192 14.9501 13.224 14.9235 13.4153 14.6931C13.4559 14.6444 13.5174 14.572 13.5911 14.485C13.8663 14.1606 14.3147 13.6322 14.4972 13.3631C14.7287 13.0217 14.9511 13.0749 15.2628 13.1902ZM5.59827 21.1658C7.35012 22.1964 9.34828 22.7386 11.383 22.7349C13.8892 22.7401 16.3265 21.9162 18.3115 20.3927C20.2973 18.8685 21.7183 16.7304 22.3514 14.3147C22.9846 11.8989 22.7938 9.34214 21.8092 7.04601C20.8246 4.7499 19.1021 2.8446 16.9119 1.6294C14.722 0.414227 12.1885 -0.0419632 9.70976 0.33254C7.23106 0.707018 4.94753 1.89094 3.21789 3.69833C1.48826 5.5057 0.410549 7.8341 0.154084 10.3177C-0.102382 12.8013 0.476924 15.2995 1.80099 17.4194L2.06811 17.8629L0.924027 22.0212L5.18426 20.9174L5.59827 21.1658ZM11.383 22.7349C11.3838 22.7349 11.3846 22.7349 11.3854 22.7349H11.381C11.3816 22.7349 11.3823 22.7349 11.383 22.7349Z" fill="#00519E" fill-opacity="0.9"/>
</g>
<defs>
<clipPath id="clip0_301_118">
<rect width="22.915" height="22.915" fill="white"/>
</clipPath>
</defs>
</svg>
