<svg width="125" height="30" viewBox="0 0 125 30" fill="none" xmlns="http://www.w3.org/2000/svg">
<path d="M2.58548 27.066H1.80104V29.0065H0.273438V23.8457H1.80104V25.8687H2.62677L4.07179 23.8457H5.72325L3.86536 26.3229L5.84711 29.0065H4.03051L2.58548 27.066Z" fill="#F4F6FB"/>
<path d="M11.6685 23.8867V29.0475H10.1409V25.1253H8.44816L8.40687 26.0336C8.36559 26.6942 8.3243 27.2722 8.20044 27.7264C8.07658 28.1805 7.91143 28.5108 7.705 28.7998C7.45728 29.0475 7.12699 29.1714 6.71413 29.1714C6.5077 29.1714 6.21869 29.1301 5.92969 29.0475L6.01225 27.8089C6.13611 27.8089 6.1774 27.8089 6.21869 27.8089C6.4664 27.8089 6.63156 27.7264 6.75542 27.5612C6.87928 27.3961 6.96185 27.1896 7.00314 26.9419C7.04442 26.6942 7.0857 26.3639 7.0857 25.951L7.16828 23.8867H11.6685Z" fill="#F4F6FB"/>
<path d="M13.1562 23.8867H14.6838V26.9419L17.2849 23.8867H18.6886V29.0475H17.161V25.9923L14.6013 29.0475H13.1975V23.8867H13.1562Z" fill="#F4F6FB"/>
<path d="M20.1328 23.8867H21.6604V25.9098H23.9724V23.8867H25.5V29.0475H23.9724V27.1071H21.6604V29.0475H20.1328V23.8867Z" fill="#F4F6FB"/>
<path d="M26.9863 23.8867H28.5139V26.9419L31.115 23.8867H32.5187V29.0475H30.9911V25.9923L28.4314 29.0475H27.0276V23.8867H26.9863Z" fill="#F4F6FB"/>
<path d="M33.9629 23.8867H35.4905V25.9098H37.8025V23.8867H39.3301V29.0475H37.8025V27.1071H35.4905V29.0475H33.9629V23.8867Z" fill="#F4F6FB"/>
<path d="M45.0709 25.0843H42.3459V29.0065H40.8184V23.8457H45.0709V25.0843Z" fill="#F4F6FB"/>
<path d="M46.6381 28.7591C46.184 28.5526 45.8537 28.2223 45.606 27.8095C45.3582 27.3966 45.2344 26.9425 45.2344 26.447C45.2344 25.9516 45.3582 25.4974 45.606 25.0846C45.8537 24.6717 46.184 24.3827 46.6381 24.135C47.0923 23.9285 47.5877 23.8047 48.1244 23.8047C48.7024 23.8047 49.1979 23.9285 49.6107 24.135C50.0649 24.3414 50.3952 24.6717 50.6429 25.0846C50.8906 25.4974 51.0145 25.9516 51.0145 26.447C51.0145 26.9425 50.8906 27.3966 50.6429 27.8095C50.3952 28.2223 50.0649 28.5113 49.6107 28.7591C49.1566 28.9655 48.6611 29.0893 48.1244 29.0893C47.5877 29.0893 47.0923 29.0068 46.6381 28.7591ZM49.1153 27.4792C49.363 27.2315 49.4869 26.8599 49.4869 26.447C49.4869 25.9929 49.363 25.6626 49.1153 25.4149C48.8676 25.1671 48.5373 25.0433 48.1657 25.0433C47.7529 25.0433 47.4638 25.1671 47.1748 25.4149C46.9271 25.6626 46.8033 26.0342 46.8033 26.447C46.8033 26.9012 46.9271 27.2315 47.1748 27.4792C47.4226 27.7269 47.7529 27.8508 48.1657 27.8508C48.5373 27.892 48.8676 27.7682 49.1153 27.4792Z" fill="#F4F6FB"/>
<path d="M57.0833 27.5615C57.0833 28.0156 56.9181 28.3872 56.5466 28.6349C56.175 28.8826 55.6382 29.0065 54.9364 29.0065H52.1289V23.8457H54.8538C55.5144 23.8457 56.0511 23.9696 56.4227 24.176C56.7943 24.4237 57.0007 24.754 57.0007 25.1669C57.0007 25.4146 56.9181 25.6623 56.7943 25.8274C56.6704 26.0339 56.464 26.1577 56.2163 26.2816C56.753 26.5293 57.0833 26.9422 57.0833 27.5615ZM53.4914 25.9926H54.6474C55.1841 25.9926 55.4731 25.8274 55.4731 25.4559C55.4731 25.0843 55.1841 24.9191 54.6474 24.9191H53.4914V25.9926ZM55.6383 27.4376C55.6383 27.2312 55.5557 27.1073 55.4318 26.9835C55.308 26.9009 55.1015 26.8596 54.8125 26.8596H53.4914V28.0156H54.7712C55.3492 28.0156 55.6383 27.8092 55.6383 27.4376Z" fill="#F4F6FB"/>
<path d="M62.1615 24.3827C62.6157 24.7543 62.8221 25.3323 62.8221 26.1168V29.0481H61.4184V28.3875C61.1294 28.8829 60.5926 29.0894 59.8082 29.0894C59.3953 29.0894 59.065 29.0068 58.7347 28.8829C58.4044 28.7591 58.198 28.5526 58.0329 28.3462C57.8677 28.1398 57.7852 27.8508 57.7852 27.5618C57.7852 27.0663 57.9503 26.6948 58.3219 26.447C58.6935 26.158 59.2715 26.0342 60.0559 26.0342H61.2945C61.2945 25.7039 61.2119 25.4562 61.0055 25.291C60.7991 25.1259 60.5101 25.0433 60.0972 25.0433C59.8082 25.0433 59.5192 25.0846 59.2715 25.1672C58.9825 25.2497 58.776 25.3736 58.5696 25.4975L58.0329 24.4653C58.3219 24.2589 58.6522 24.0937 59.065 24.0111C59.4779 23.8873 59.8908 23.846 60.3036 23.846C61.0881 23.8047 61.7486 23.9699 62.1615 24.3827ZM60.8816 27.9334C61.0881 27.8095 61.2119 27.6443 61.2945 27.3966V26.8599H60.2211C59.6018 26.8599 59.2715 27.0663 59.2715 27.4792C59.2715 27.6856 59.354 27.8095 59.5192 27.9334C59.6843 28.0572 59.8908 28.0985 60.1385 28.0985C60.4275 28.0985 60.6752 28.0572 60.8816 27.9334Z" fill="#F4F6FB"/>
<path d="M68.8913 23.8867V29.0475H67.5288V27.5612H66.3728L65.3819 29.0475H63.7305L64.9278 27.3548C64.5562 27.2309 64.2672 27.0245 64.102 26.7355C63.8956 26.4878 63.813 26.1575 63.813 25.7859C63.813 25.1666 64.0195 24.7125 64.4736 24.3822C64.9278 24.0519 65.5471 23.8867 66.3315 23.8867H68.8913ZM65.6296 25.2492C65.4645 25.373 65.3819 25.5382 65.3819 25.7859C65.3819 26.0336 65.4645 26.24 65.6296 26.3639C65.7948 26.4878 66.0425 26.5291 66.3728 26.5291H67.5288V25.0427H66.3728C66.0425 25.084 65.7948 25.1666 65.6296 25.2492Z" fill="#F4F6FB"/>
<path d="M75.4976 27.066H74.7131V29.0065H73.1855V23.8457H74.7131V25.8687H75.5389L76.9839 23.8457H78.6354L76.7775 26.3229L78.7592 29.0065H76.9426L75.4976 27.066Z" fill="#F4F6FB"/>
<path d="M80.2866 28.7591C79.8324 28.5526 79.5021 28.2223 79.2544 27.8095C79.0067 27.3966 78.8828 26.9425 78.8828 26.447C78.8828 25.9516 79.0067 25.4974 79.2544 25.0846C79.5021 24.6717 79.8324 24.3827 80.2866 24.135C80.7407 23.9285 81.2361 23.8047 81.7729 23.8047C82.3509 23.8047 82.8463 23.9285 83.2592 24.135C83.7133 24.3414 84.0436 24.6717 84.2914 25.0846C84.5391 25.4974 84.6629 25.9516 84.6629 26.447C84.6629 26.9425 84.5391 27.3966 84.2914 27.8095C84.0436 28.2223 83.7133 28.5113 83.2592 28.7591C82.805 28.9655 82.3096 29.0893 81.7729 29.0893C81.2361 29.0893 80.7407 29.0068 80.2866 28.7591ZM82.7637 27.4792C83.0115 27.2315 83.1353 26.8599 83.1353 26.447C83.1353 25.9929 83.0115 25.6626 82.7637 25.4149C82.516 25.1671 82.1857 25.0433 81.8142 25.0433C81.4013 25.0433 81.1123 25.1671 80.8233 25.4149C80.5756 25.6626 80.4517 26.0342 80.4517 26.447C80.4517 26.9012 80.5756 27.2315 80.8233 27.4792C81.071 27.7269 81.4013 27.8508 81.8142 27.8508C82.1857 27.892 82.516 27.7682 82.7637 27.4792Z" fill="#F4F6FB"/>
<path d="M90.9384 29.0475V25.951L89.3695 28.5521H88.6677L87.1401 25.951V29.0475H85.7363V23.8867H87.3465L89.0392 26.8593L90.8558 23.8867H92.3009V29.0475H90.9384Z" fill="#F4F6FB"/>
<path d="M99.0305 23.8867V29.0475H97.5029V25.1253H95.3147V29.0475H93.7871V23.8867H99.0305Z" fill="#F4F6FB"/>
<path d="M104.48 24.3827C104.934 24.7543 105.141 25.3323 105.141 26.1168V29.0481H103.696V28.3875C103.407 28.8829 102.87 29.0894 102.086 29.0894C101.673 29.0894 101.342 29.0068 101.012 28.8829C100.682 28.7591 100.475 28.5526 100.31 28.3462C100.145 28.1398 100.062 27.8508 100.062 27.5618C100.062 27.0663 100.228 26.6948 100.599 26.447C100.971 26.158 101.549 26.0342 102.333 26.0342H103.572C103.572 25.7039 103.489 25.4562 103.283 25.291C103.076 25.1259 102.787 25.0433 102.375 25.0433C102.086 25.0433 101.797 25.0846 101.549 25.1672C101.26 25.2497 101.053 25.3736 100.847 25.4975L100.31 24.4653C100.599 24.2589 100.93 24.0937 101.342 24.0111C101.755 23.8873 102.168 23.846 102.581 23.846C103.407 23.8047 104.026 23.9699 104.48 24.3827ZM103.159 27.9334C103.365 27.8095 103.489 27.6443 103.572 27.3966V26.8599H102.498C101.879 26.8599 101.549 27.0663 101.549 27.4792C101.549 27.6856 101.631 27.8095 101.797 27.9334C101.962 28.0572 102.168 28.0985 102.416 28.0985C102.746 28.0985 102.953 28.0572 103.159 27.9334Z" fill="#F4F6FB"/>
<path d="M106.463 23.8867H107.99V25.9098H110.303V23.8867H111.83V29.0475H110.303V27.1071H107.99V29.0475H106.463V23.8867Z" fill="#F4F6FB"/>
<path d="M113.316 23.8867H114.844V26.9419L117.445 23.8867H118.849V29.0475H117.321V25.9923L114.761 29.0475H113.358V23.8867H113.316Z" fill="#F4F6FB"/>
<path d="M125 23.8867V29.0475H123.638V27.5612H122.523L121.532 29.0475H119.881L121.078 27.3548C120.707 27.2309 120.418 27.0245 120.252 26.7355C120.046 26.4878 119.963 26.1575 119.963 25.7859C119.963 25.1666 120.17 24.7125 120.624 24.3822C121.078 24.0519 121.697 23.8867 122.482 23.8867H125ZM121.78 25.2492C121.615 25.373 121.532 25.5382 121.532 25.7859C121.532 26.0336 121.615 26.24 121.78 26.3639C121.945 26.4878 122.193 26.5291 122.523 26.5291H123.679V25.0427H122.523C122.193 25.084 121.945 25.1666 121.78 25.2492Z" fill="#F4F6FB"/>
<path d="M15.9623 17.3207L15.921 7.45321L10.9667 15.5866H9.19136L4.23699 7.70093V17.3207H0.5625V0.888672H3.78284L10.0997 11.0864L16.3339 0.888672H19.5543L19.5955 17.3207H15.9623Z" fill="#F4F6FB"/>
<path d="M34.7476 13.8113H26.9032L25.4169 17.3207H21.4121L28.9262 0.888672H32.7659L40.3213 17.3207H36.2339L34.7476 13.8113ZM33.509 10.9213L30.8254 4.64574L28.1418 10.9213H33.509Z" fill="#F4F6FB"/>
<path d="M48.2493 10.8797L45.9786 13.1918V17.3617H42.0977V0.929688H45.9786V8.60895L53.4514 0.929688H57.7865L50.8091 8.23738L58.1994 17.3204H53.6579L48.2493 10.8797Z" fill="#F4F6FB"/>
<path d="M59.9336 0.929688H63.8558V14.2652H72.3195V17.3617H59.9336V0.929688Z" fill="#F4F6FB"/>
<path d="M87.5543 14.2655V17.3207H74.5078V0.888672H87.2653V3.94387H78.3887V7.4945H86.2331V10.4671H78.3887V14.2655H87.5543Z" fill="#F4F6FB"/>
<path d="M101.798 13.8113H93.954L92.4677 17.3207H88.4629L95.977 0.888672H99.8167L107.372 17.3207H103.285L101.798 13.8113ZM100.56 10.9213L97.8762 4.64574L95.1926 10.9213H100.56Z" fill="#F4F6FB"/>
<path d="M124.629 0.929688V17.3617H121.409L112.986 7.41165V17.3617H109.146V0.929688H112.367L120.748 10.8797V0.929688H124.629Z" fill="#F4F6FB"/>
</svg>
